<?xml version="1.0" encoding="UTF-8" standalone="no"?>
<!-- Created with Inkscape (http://www.inkscape.org/) -->

<svg
   width="57.046898mm"
   height="87.803741mm"
   viewBox="0 0 57.046898 87.803742"
   version="1.1"
   id="svg1"
   xml:space="preserve"
   inkscape:export-filename="heute.svg"
   inkscape:export-xdpi="120.95238"
   inkscape:export-ydpi="120.95238"
   xmlns:inkscape="http://www.inkscape.org/namespaces/inkscape"
   xmlns:sodipodi="http://sodipodi.sourceforge.net/DTD/sodipodi-0.dtd"
   xmlns="http://www.w3.org/2000/svg"
   xmlns:svg="http://www.w3.org/2000/svg"><sodipodi:namedview
     id="namedview1"
     pagecolor="#ffffff"
     bordercolor="#000000"
     borderopacity="0.25"
     inkscape:showpageshadow="2"
     inkscape:pageopacity="0.0"
     inkscape:pagecheckerboard="0"
     inkscape:deskcolor="#d1d1d1"
     inkscape:document-units="mm" /><defs
     id="defs1" /><g
     inkscape:label="Ebene 1"
     inkscape:groupmode="layer"
     id="layer1"
     transform="translate(-77.499308,-87.394254)"><g
       id="g13"
       transform="matrix(0.91277796,0,0,0.91277796,-63.451404,53.016627)"><g
         id="g14"
         transform="translate(449.43397,-34.974482)"><path
           style="fill:#f8d0b5;fill-opacity:1;stroke:none;stroke-width:2.77299;stroke-linecap:round;stroke-linejoin:miter;stroke-dasharray:none;stroke-opacity:1;paint-order:stroke fill markers"
           d="m -278.40881,168.8311 h 34.37432 l 0.64205,-9.66037 8.50531,-13.87708 0.54357,-15.09212 0.032,-20.7197 -2.97366,-4.0608 -8.889,0.89529 -2.62194,-3.22945 -7.22631,-0.47963 -5.2119,-1.21504 -8.66518,-1.758616 -0.76739,-17.714058 -4.09279,-7.226313 -5.81941,0.415673 -3.2934,3.996854 -0.2558,36.96291 -7.61002,9.7843 -1.5348,12.43821 7.29028,11.73476 7.03445,10.39182 z"
           id="path13"
           sodipodi:nodetypes="cccccccccccccccccccccc" /><path
           id="path10"
           style="fill:#000000"
           d="m -277.46937,72.637427 c -1.23893,-0.0092 -2.48562,0.187094 -3.36568,0.591178 -1.66593,0.764908 -3.25256,2.255845 -3.98684,3.746541 -0.5496,1.115758 -0.62406,1.717253 -0.74311,6.002735 v 19.661829 11.06341 l -2.3151,2.3828 c -2.7804,2.86145 -4.56951,5.73883 -5.77433,9.2878 -1.94164,5.7194 -1.80866,10.92717 0.42685,16.72405 1.05241,2.72897 2.44443,4.82642 7.38456,11.12697 2.22495,2.83764 4.3585,5.81422 4.74132,6.61458 l 0.69608,1.45521 0.078,6.37734 0.0786,1.15923 h 1.84019 1.8402 v -0.90602 c 0,-5.53378 -0.11143,-7.96244 -1.47536,-10.44789 -0.36534,-0.66574 -2.74064,-3.88347 -5.27823,-7.15047 -2.53759,-3.26701 -5.02569,-6.72421 -5.52938,-7.68273 -1.12562,-2.14205 -2.14588,-5.59525 -2.39417,-8.10442 -0.33088,-3.34376 0.71098,-7.94091 2.53008,-11.16417 0.97897,-1.73462 2.6514,-4.01785 2.94297,-4.01785 0.1145,0 0.20826,2.97657 0.20826,6.61459 v 6.61458 h 1.85208 1.85209 V 106.1196 c 0,-28.734518 -0.058,-27.593753 1.45882,-28.786871 1.68352,-1.324246 3.94143,-1.380076 5.42189,-0.134358 1.8033,1.517356 1.71007,0.485666 1.79317,19.868038 l 0.0749,17.528641 h 1.84329 1.8433 v -5.17281 c 0,-5.66135 0.0938,-6.09741 1.57923,-7.34735 1.22254,-1.02869 2.87825,-1.1808 4.43643,-0.40773 0.69271,0.34369 1.52755,1.02896 1.85518,1.52342 0.56769,0.85674 0.59583,1.1461 0.59583,6.15156 v 5.25291 h 1.85208 1.85209 l 0.0114,-3.37344 c 0.0162,-4.71171 0.52762,-5.96513 2.85978,-7.00835 1.96978,-0.88112 4.3423,-0.023 5.33921,1.93115 0.44494,0.8722 0.5209,1.56262 0.5209,4.73562 v 3.71502 h 1.85208 1.85208 v -1.92856 c 0,-3.46504 1.60523,-5.47977 4.36563,-5.47977 1.7472,0 2.95563,0.76035 3.77031,2.37298 l 0.59531,1.17874 v 15.50603 c 0,18.9608 0.253,17.54376 -4.19612,23.46989 -3.34327,4.45312 -4.21175,5.84371 -4.93872,7.90391 -0.64111,1.81624 -0.64712,3.29409 -0.64957,9.12704 l -0.006,2.08579 h 1.8433 1.84382 l 0.0744,-2.09199 0.0749,-7.30958 0.85215,-1.7136 c 0.46874,-0.94247 1.76382,-2.90421 2.87786,-4.35942 3.04746,-3.98071 4.49599,-6.29446 5.17849,-8.2703 l 0.6165,-1.78387 V 126.36903 109.4357 l -0.62528,-1.38286 c -0.7149,-1.58122 -2.46727,-3.32015 -4.08709,-4.05557 -0.79062,-0.35894 -1.71953,-0.50501 -3.23908,-0.50901 -1.78864,-0.005 -2.35987,0.10837 -3.55585,0.70435 -0.90962,0.45333 -1.46043,0.60288 -1.52343,0.41392 -0.27847,-0.83539 -1.81725,-2.56249 -2.88819,-3.24166 -2.42151,-1.535672 -5.47497,-1.639268 -8.1747,-0.2775 -0.79134,0.39916 -1.43867,0.64203 -1.43867,0.5395 0,-0.5151 -2.34977,-2.753797 -3.53932,-3.371885 -1.15601,-0.60067 -1.68652,-0.704384 -3.60443,-0.705384 -1.62079,-10e-4 -2.48569,0.125199 -3.09593,0.452169 -0.46572,0.24953 -0.91219,0.453719 -0.99219,0.453719 -0.08,0 -0.14521,-1.704913 -0.14521,-3.788399 l -0.0491,-11.731579 c -0.10954,-3.800632 -0.18556,-4.34206 -0.79324,-5.652368 -0.80471,-1.735176 -2.20841,-3.183135 -3.88193,-4.004923 -0.84904,-0.41691 -2.08024,-0.631592 -3.31918,-0.640788 z"
           sodipodi:nodetypes="sssccccsssscccccsssssssscccsssccccsssssccccssscccssccsscsccccccscccccscsssssscssccssss" /></g></g></g></svg>
