<?xml version="1.0" encoding="UTF-8" standalone="no"?>
<!-- Created with Inkscape (http://www.inkscape.org/) -->

<svg
   width="210mm"
   height="175.198mm"
   viewBox="0 0 210 175.198"
   version="1.1"
   id="svg1"
   xml:space="preserve"
   inkscape:export-filename="heute-hand.svg"
   inkscape:export-xdpi="120.95238"
   inkscape:export-ydpi="120.95238"
   xmlns:inkscape="http://www.inkscape.org/namespaces/inkscape"
   xmlns:sodipodi="http://sodipodi.sourceforge.net/DTD/sodipodi-0.dtd"
   xmlns="http://www.w3.org/2000/svg"
   xmlns:svg="http://www.w3.org/2000/svg"><sodipodi:namedview
     id="namedview1"
     pagecolor="#ffffff"
     bordercolor="#000000"
     borderopacity="0.25"
     inkscape:showpageshadow="2"
     inkscape:pageopacity="0.0"
     inkscape:pagecheckerboard="0"
     inkscape:deskcolor="#d1d1d1"
     inkscape:document-units="mm" /><defs
     id="defs1" /><g
     inkscape:label="Ebene 1"
     inkscape:groupmode="layer"
     id="layer1"><g
       id="g5"
       transform="matrix(1.1275619,0,0,1.1275619,-13.1382,-79.725606)"><rect
         style="fill:#b2d3ed;fill-opacity:1;stroke:none;stroke-width:2.77299;stroke-linecap:round;stroke-linejoin:miter;stroke-dasharray:none;stroke-opacity:1;paint-order:stroke fill markers"
         id="rect5"
         width="64.852974"
         height="84.150337"
         x="72.573509"
         y="78.768547" /><path
         id="path5"
         style="fill:#000000;fill-opacity:1;stroke-width:0.515569"
         d="M 129.32699,78.768319 96.090776,162.91874 H 137.42624 V 78.768319 Z M 118.12716,120.8443 c 0.52091,0.0115 1.68701,0.24437 2.67942,0.56173 5.20887,1.66568 9.15396,5.60063 10.79107,10.76316 0.57861,1.82462 0.76846,3.08241 0.76275,5.04724 -0.0228,7.86067 -5.50711,14.51203 -13.27051,16.09411 -1.58108,0.3222 -4.53973,0.35848 -6.08077,0.0744 -1.34338,-0.24761 -2.40873,-0.57444 -3.75481,-1.15238 -1.84446,-0.79191 -4.66974,-2.76085 -4.45657,-3.10576 0.0578,-0.0935 0.63618,-0.11922 1.66243,-0.0739 6.40662,0.28272 12.32815,-3.21077 15.07608,-8.89455 1.32216,-2.73473 1.70247,-4.56147 1.59319,-7.64811 -0.14955,-4.22442 -1.50565,-7.42087 -4.53926,-10.69754 -0.40616,-0.4387 -0.73846,-0.84431 -0.73846,-0.90124 0,-0.0504 0.1018,-0.071 0.27544,-0.0672 z" /><path
         style="fill:#000000;stroke-width:0.496968"
         d="m 93.877278,126.2584 c -0.191047,-0.2111 -0.217375,-0.66457 -0.215604,-3.71458 8.24e-4,-1.91076 0.04548,-3.53921 0.09861,-3.61879 0.181344,-0.27157 0.682398,-0.45351 1.017405,-0.36944 0.690577,0.17333 0.722821,0.35297 0.722821,4.02785 0,3.21415 -0.0136,3.40307 -0.262979,3.65245 -0.335766,0.33575 -1.065843,0.34784 -1.360256,0.0225 z m -10.400592,-2.81305 c -0.112578,-0.16074 -0.20469,-0.43058 -0.20469,-0.59966 0,-0.32896 3.05801,-5.76892 3.397656,-6.04417 0.300501,-0.24352 0.999086,-0.20099 1.249839,0.0761 0.431866,0.47721 0.270136,0.95443 -1.172479,3.45973 -2.029402,3.52431 -1.936389,3.40025 -2.549001,3.40025 -0.384818,0 -0.568859,-0.0746 -0.721325,-0.29224 z m 20.808324,0.12787 c -0.11387,-0.0904 -0.92398,-1.41332 -1.80024,-2.93983 -1.6541,-2.88157 -1.82292,-3.35312 -1.35274,-3.77862 0.28259,-0.25573 1.1141,-0.28952 1.31002,-0.0533 0.075,0.0904 0.85143,1.4054 1.72546,2.92223 1.65948,2.87988 1.83022,3.36046 1.34872,3.79621 -0.2842,0.25721 -0.93866,0.28551 -1.23122,0.0533 z m -28.331349,-7.66797 c -0.272543,-0.27255 -0.321494,-0.41716 -0.254532,-0.75196 0.04557,-0.22799 0.12617,-0.45611 0.179053,-0.50697 0.296361,-0.28496 5.842946,-3.40023 6.053958,-3.40023 0.752653,0 1.20877,0.98658 0.715281,1.54714 -0.335866,0.38153 -5.735795,3.44946 -6.071457,3.44946 -0.156674,0 -0.436711,-0.15185 -0.622303,-0.33744 z m 33.353249,-1.32148 c -1.55487,-0.90355 -2.901,-1.73962 -2.9914,-1.85794 -0.0904,-0.11831 -0.16436,-0.35442 -0.16436,-0.52468 0,-0.38807 0.55232,-0.95506 0.93035,-0.95506 0.33567,0 5.7356,3.06793 6.07147,3.44945 0.12656,0.14377 0.2301,0.40545 0.2301,0.58152 0,0.40804 -0.55402,0.96806 -0.94732,0.95758 -0.166,-0.004 -1.57398,-0.74732 -3.12884,-1.65087 z m -16.238955,0.74025 c -4.113314,-0.58769 -7.475288,-3.54009 -8.642725,-7.58982 -0.423209,-1.46807 -0.423209,-4.13113 0,-5.5992 1.876751,-6.510264 9.158878,-9.588056 15.141294,-6.399465 4.048656,2.157916 6.232836,7.103475 5.143596,11.646555 -0.91207,3.80416 -3.88297,6.81048 -7.631738,7.72273 -1.076973,0.26208 -2.981662,0.36619 -4.010427,0.2192 z m -19.911099,-9.81545 c -0.149892,-0.19055 -0.272524,-0.44884 -0.272524,-0.57398 0,-0.12513 0.122632,-0.38342 0.272524,-0.57396 l 0.27252,-0.34646 H 76.9043 c 3.299609,0 3.488199,0.0132 3.73791,0.26298 0.146098,0.14609 0.262975,0.4383 0.262975,0.65744 0,0.21915 -0.116877,0.51135 -0.262975,0.65745 -0.249711,0.24971 -0.438301,0.26298 -3.73791,0.26298 h -3.474924 z m 35.229624,0.0835 c -0.14611,-0.1461 -0.26299,-0.43829 -0.26299,-0.65745 0,-0.21914 0.11688,-0.51135 0.26299,-0.65744 0.24974,-0.24975 0.43829,-0.26298 3.74744,-0.26298 3.30915,0 3.49771,0.0131 3.74745,0.26298 0.14609,0.14609 0.26299,0.4383 0.26299,0.65744 0,0.21916 -0.1169,0.51135 -0.26299,0.65745 -0.24974,0.24975 -0.4383,0.26298 -3.74745,0.26298 -3.30915,0 -3.4977,-0.0131 -3.74744,-0.26298 z M 78.801356,96.964982 c -1.554863,-0.904447 -2.870293,-1.687212 -2.923174,-1.739483 -0.05289,-0.05228 -0.133456,-0.281578 -0.179052,-0.509557 -0.06697,-0.334802 -0.01799,-0.479411 0.254532,-0.751958 0.185591,-0.185591 0.462051,-0.33744 0.614351,-0.33744 0.329604,0 5.747682,3.075126 6.079408,3.450478 0.496838,0.562177 0.04601,1.555202 -0.698791,1.539278 -0.17614,-0.0041 -1.592411,-0.746865 -3.147274,-1.651318 z m 27.672534,1.335416 c -0.3521,-0.352117 -0.41615,-0.819823 -0.15838,-1.156657 0.23875,-0.311941 5.85437,-3.517197 6.16216,-3.517197 0.34346,0 0.9054,0.572914 0.9054,0.923093 0,0.152683 -0.0576,0.385418 -0.12822,0.517194 -0.16684,0.311744 -5.79787,3.556308 -6.17205,3.556308 -0.15738,0 -0.43139,-0.145234 -0.60891,-0.322741 z M 86.668589,93.067683 c -0.345197,-0.278287 -3.396593,-5.701043 -3.396593,-6.036223 0,-0.553464 0.350973,-0.899844 0.911782,-0.899844 0.276319,0 0.563382,0.07396 0.637918,0.164361 0.07452,0.0904 0.850987,1.397032 1.725462,2.903625 1.670156,2.87745 1.843575,3.367689 1.34949,3.81483 -0.284165,0.257166 -0.93984,0.285598 -1.228059,0.05325 z m 14.440611,-0.0761 c -0.42358,-0.468034 -0.26034,-0.912975 1.37911,-3.75919 0.8782,-1.524633 1.68831,-2.846021 1.80024,-2.936419 0.30148,-0.243489 0.99976,-0.200999 1.25052,0.07609 0.43876,0.484817 0.27362,0.940423 -1.37157,3.784243 -0.87404,1.510852 -1.6505,2.820964 -1.72545,2.911362 -0.2099,0.25314 -1.07985,0.203468 -1.33285,-0.0761 z m -6.989324,-1.754341 c -0.144636,-0.08377 -0.306448,-0.216533 -0.359589,-0.29503 -0.05313,-0.0785 -0.0975,-1.716363 -0.09861,-3.639693 -0.0017,-3.222295 0.01689,-3.514055 0.238446,-3.714572 0.330839,-0.299408 1.015882,-0.276175 1.337413,0.04537 0.249435,0.249433 0.262979,0.438295 0.262979,3.667135 0,3.050801 -0.02389,3.432389 -0.230102,3.676097 -0.289232,0.341815 -0.807652,0.459283 -1.150534,0.2607 z"
         id="path2"
         sodipodi:nodetypes="scccscsssssscssscsssssscssssssssssscscssssscssscssssscsssssssssssssssscssssssssssssssssssssssssccsscss" /><rect
         style="fill:none;stroke:#000000;stroke-width:2.67581;stroke-linecap:round;stroke-linejoin:miter;stroke-dasharray:none;stroke-opacity:1;paint-order:stroke fill markers"
         id="rect3"
         width="64.852982"
         height="84.15033"
         x="72.573509"
         y="78.768547" /></g><rect
       style="fill:#ffffff;fill-opacity:1;stroke:none;stroke-width:2.75121;stroke-linecap:round;stroke-linejoin:miter;stroke-dasharray:none;stroke-opacity:1;paint-order:stroke fill markers"
       id="rect14"
       width="88.426834"
       height="94.884712"
       x="-28.578564"
       y="9.0910168" /><rect
       style="fill:#ffffff;fill-opacity:1;stroke:none;stroke-width:2.75121;stroke-linecap:round;stroke-linejoin:miter;stroke-dasharray:none;stroke-opacity:1;paint-order:stroke fill markers"
       id="rect15"
       width="88.426834"
       height="94.884712"
       x="150.66331"
       y="9.0910168" /><g
       id="g7"
       transform="matrix(1.1275619,0,0,1.1275619,68.832189,-79.725396)"><g
         id="g8"><path
           id="path6"
           style="fill:#8d8b8d;fill-opacity:1;stroke-width:0.515569"
           d="M 129.32699,78.768319 96.090776,162.91874 H 137.42624 V 78.768319 Z M 118.12716,120.8443 c 0.52091,0.0115 1.68701,0.24437 2.67942,0.56173 5.20887,1.66568 9.15396,5.60063 10.79107,10.76316 0.57861,1.82462 0.76846,3.08241 0.76275,5.04724 -0.0228,7.86067 -5.50711,14.51203 -13.27051,16.09411 -1.58108,0.3222 -4.53973,0.35848 -6.08077,0.0744 -1.34338,-0.24761 -2.40873,-0.57444 -3.75481,-1.15238 -1.84446,-0.79191 -4.66974,-2.76085 -4.45657,-3.10576 0.0578,-0.0935 0.63618,-0.11922 1.66243,-0.0739 6.40662,0.28272 12.32815,-3.21077 15.07608,-8.89455 1.32216,-2.73473 1.70247,-4.56147 1.59319,-7.64811 -0.14955,-4.22442 -1.50565,-7.42087 -4.53926,-10.69754 -0.40616,-0.4387 -0.73846,-0.84431 -0.73846,-0.90124 0,-0.0504 0.1018,-0.071 0.27544,-0.0672 z" /><path
           style="fill:#8d8b8d;fill-opacity:1;stroke-width:0.496968"
           d="m 93.877278,126.2584 c -0.191047,-0.2111 -0.217375,-0.66457 -0.215604,-3.71458 8.24e-4,-1.91076 0.04548,-3.53921 0.09861,-3.61879 0.181344,-0.27157 0.682398,-0.45351 1.017405,-0.36944 0.690577,0.17333 0.722821,0.35297 0.722821,4.02785 0,3.21415 -0.0136,3.40307 -0.262979,3.65245 -0.335766,0.33575 -1.065843,0.34784 -1.360256,0.0225 z m -10.400592,-2.81305 c -0.112578,-0.16074 -0.20469,-0.43058 -0.20469,-0.59966 0,-0.32896 3.05801,-5.76892 3.397656,-6.04417 0.300501,-0.24352 0.999086,-0.20099 1.249839,0.0761 0.431866,0.47721 0.270136,0.95443 -1.172479,3.45973 -2.029402,3.52431 -1.936389,3.40025 -2.549001,3.40025 -0.384818,0 -0.568859,-0.0746 -0.721325,-0.29224 z m 20.808324,0.12787 c -0.11387,-0.0904 -0.92398,-1.41332 -1.80024,-2.93983 -1.6541,-2.88157 -1.82292,-3.35312 -1.35274,-3.77862 0.28259,-0.25573 1.1141,-0.28952 1.31002,-0.0533 0.075,0.0904 0.85143,1.4054 1.72546,2.92223 1.65948,2.87988 1.83022,3.36046 1.34872,3.79621 -0.2842,0.25721 -0.93866,0.28551 -1.23122,0.0533 z m -28.331349,-7.66797 c -0.272543,-0.27255 -0.321494,-0.41716 -0.254532,-0.75196 0.04557,-0.22799 0.12617,-0.45611 0.179053,-0.50697 0.296361,-0.28496 5.842946,-3.40023 6.053958,-3.40023 0.752653,0 1.20877,0.98658 0.715281,1.54714 -0.335866,0.38153 -5.735795,3.44946 -6.071457,3.44946 -0.156674,0 -0.436711,-0.15185 -0.622303,-0.33744 z m 33.353249,-1.32148 c -1.55487,-0.90355 -2.901,-1.73962 -2.9914,-1.85794 -0.0904,-0.11831 -0.16436,-0.35442 -0.16436,-0.52468 0,-0.38807 0.55232,-0.95506 0.93035,-0.95506 0.33567,0 5.7356,3.06793 6.07147,3.44945 0.12656,0.14377 0.2301,0.40545 0.2301,0.58152 0,0.40804 -0.55402,0.96806 -0.94732,0.95758 -0.166,-0.004 -1.57398,-0.74732 -3.12884,-1.65087 z m -16.238955,0.74025 c -4.113314,-0.58769 -7.475288,-3.54009 -8.642725,-7.58982 -0.423209,-1.46807 -0.423209,-4.13113 0,-5.5992 1.876751,-6.510264 9.158878,-9.588056 15.141294,-6.399465 4.048656,2.157916 6.232836,7.103475 5.143596,11.646555 -0.91207,3.80416 -3.88297,6.81048 -7.631738,7.72273 -1.076973,0.26208 -2.981662,0.36619 -4.010427,0.2192 z m -19.911099,-9.81545 c -0.149892,-0.19055 -0.272524,-0.44884 -0.272524,-0.57398 0,-0.12513 0.122632,-0.38342 0.272524,-0.57396 l 0.27252,-0.34646 H 76.9043 c 3.299609,0 3.488199,0.0132 3.73791,0.26298 0.146098,0.14609 0.262975,0.4383 0.262975,0.65744 0,0.21915 -0.116877,0.51135 -0.262975,0.65745 -0.249711,0.24971 -0.438301,0.26298 -3.73791,0.26298 h -3.474924 z m 35.229624,0.0835 c -0.14611,-0.1461 -0.26299,-0.43829 -0.26299,-0.65745 0,-0.21914 0.11688,-0.51135 0.26299,-0.65744 0.24974,-0.24975 0.43829,-0.26298 3.74744,-0.26298 3.30915,0 3.49771,0.0131 3.74745,0.26298 0.14609,0.14609 0.26299,0.4383 0.26299,0.65744 0,0.21916 -0.1169,0.51135 -0.26299,0.65745 -0.24974,0.24975 -0.4383,0.26298 -3.74745,0.26298 -3.30915,0 -3.4977,-0.0131 -3.74744,-0.26298 z M 78.801356,96.964982 c -1.554863,-0.904447 -2.870293,-1.687212 -2.923174,-1.739483 -0.05289,-0.05228 -0.133456,-0.281578 -0.179052,-0.509557 -0.06697,-0.334802 -0.01799,-0.479411 0.254532,-0.751958 0.185591,-0.185591 0.462051,-0.33744 0.614351,-0.33744 0.329604,0 5.747682,3.075126 6.079408,3.450478 0.496838,0.562177 0.04601,1.555202 -0.698791,1.539278 -0.17614,-0.0041 -1.592411,-0.746865 -3.147274,-1.651318 z m 27.672534,1.335416 c -0.3521,-0.352117 -0.41615,-0.819823 -0.15838,-1.156657 0.23875,-0.311941 5.85437,-3.517197 6.16216,-3.517197 0.34346,0 0.9054,0.572914 0.9054,0.923093 0,0.152683 -0.0576,0.385418 -0.12822,0.517194 -0.16684,0.311744 -5.79787,3.556308 -6.17205,3.556308 -0.15738,0 -0.43139,-0.145234 -0.60891,-0.322741 z M 86.668589,93.067683 c -0.345197,-0.278287 -3.396593,-5.701043 -3.396593,-6.036223 0,-0.553464 0.350973,-0.899844 0.911782,-0.899844 0.276319,0 0.563382,0.07396 0.637918,0.164361 0.07452,0.0904 0.850987,1.397032 1.725462,2.903625 1.670156,2.87745 1.843575,3.367689 1.34949,3.81483 -0.284165,0.257166 -0.93984,0.285598 -1.228059,0.05325 z m 14.440611,-0.0761 c -0.42358,-0.468034 -0.26034,-0.912975 1.37911,-3.75919 0.8782,-1.524633 1.68831,-2.846021 1.80024,-2.936419 0.30148,-0.243489 0.99976,-0.200999 1.25052,0.07609 0.43876,0.484817 0.27362,0.940423 -1.37157,3.784243 -0.87404,1.510852 -1.6505,2.820964 -1.72545,2.911362 -0.2099,0.25314 -1.07985,0.203468 -1.33285,-0.0761 z m -6.989324,-1.754341 c -0.144636,-0.08377 -0.306448,-0.216533 -0.359589,-0.29503 -0.05313,-0.0785 -0.0975,-1.716363 -0.09861,-3.639693 -0.0017,-3.222295 0.01689,-3.514055 0.238446,-3.714572 0.330839,-0.299408 1.015882,-0.276175 1.337413,0.04537 0.249435,0.249433 0.262979,0.438295 0.262979,3.667135 0,3.050801 -0.02389,3.432389 -0.230102,3.676097 -0.289232,0.341815 -0.807652,0.459283 -1.150534,0.2607 z"
           id="path7"
           sodipodi:nodetypes="scccscsssssscssscsssssscssssssssssscscssssscssscssssscsssssssssssssssscssssssssssssssssssssssssccsscss" /><rect
           style="fill:none;stroke:#8d8b8d;stroke-width:2.67581;stroke-linecap:round;stroke-linejoin:miter;stroke-dasharray:none;stroke-opacity:1;paint-order:stroke fill markers"
           id="rect7"
           width="64.852982"
           height="84.15033"
           x="72.573509"
           y="78.768547" /></g><g
         id="g9"
         transform="translate(-145.39404)"><path
           id="path8"
           style="fill:#8d8b8d;fill-opacity:1;stroke-width:0.515569"
           d="M 129.32699,78.768319 96.090776,162.91874 H 137.42624 V 78.768319 Z M 118.12716,120.8443 c 0.52091,0.0115 1.68701,0.24437 2.67942,0.56173 5.20887,1.66568 9.15396,5.60063 10.79107,10.76316 0.57861,1.82462 0.76846,3.08241 0.76275,5.04724 -0.0228,7.86067 -5.50711,14.51203 -13.27051,16.09411 -1.58108,0.3222 -4.53973,0.35848 -6.08077,0.0744 -1.34338,-0.24761 -2.40873,-0.57444 -3.75481,-1.15238 -1.84446,-0.79191 -4.66974,-2.76085 -4.45657,-3.10576 0.0578,-0.0935 0.63618,-0.11922 1.66243,-0.0739 6.40662,0.28272 12.32815,-3.21077 15.07608,-8.89455 1.32216,-2.73473 1.70247,-4.56147 1.59319,-7.64811 -0.14955,-4.22442 -1.50565,-7.42087 -4.53926,-10.69754 -0.40616,-0.4387 -0.73846,-0.84431 -0.73846,-0.90124 0,-0.0504 0.1018,-0.071 0.27544,-0.0672 z" /><path
           style="fill:#8d8b8d;fill-opacity:1;stroke-width:0.496968"
           d="m 93.877278,126.2584 c -0.191047,-0.2111 -0.217375,-0.66457 -0.215604,-3.71458 8.24e-4,-1.91076 0.04548,-3.53921 0.09861,-3.61879 0.181344,-0.27157 0.682398,-0.45351 1.017405,-0.36944 0.690577,0.17333 0.722821,0.35297 0.722821,4.02785 0,3.21415 -0.0136,3.40307 -0.262979,3.65245 -0.335766,0.33575 -1.065843,0.34784 -1.360256,0.0225 z m -10.400592,-2.81305 c -0.112578,-0.16074 -0.20469,-0.43058 -0.20469,-0.59966 0,-0.32896 3.05801,-5.76892 3.397656,-6.04417 0.300501,-0.24352 0.999086,-0.20099 1.249839,0.0761 0.431866,0.47721 0.270136,0.95443 -1.172479,3.45973 -2.029402,3.52431 -1.936389,3.40025 -2.549001,3.40025 -0.384818,0 -0.568859,-0.0746 -0.721325,-0.29224 z m 20.808324,0.12787 c -0.11387,-0.0904 -0.92398,-1.41332 -1.80024,-2.93983 -1.6541,-2.88157 -1.82292,-3.35312 -1.35274,-3.77862 0.28259,-0.25573 1.1141,-0.28952 1.31002,-0.0533 0.075,0.0904 0.85143,1.4054 1.72546,2.92223 1.65948,2.87988 1.83022,3.36046 1.34872,3.79621 -0.2842,0.25721 -0.93866,0.28551 -1.23122,0.0533 z m -28.331349,-7.66797 c -0.272543,-0.27255 -0.321494,-0.41716 -0.254532,-0.75196 0.04557,-0.22799 0.12617,-0.45611 0.179053,-0.50697 0.296361,-0.28496 5.842946,-3.40023 6.053958,-3.40023 0.752653,0 1.20877,0.98658 0.715281,1.54714 -0.335866,0.38153 -5.735795,3.44946 -6.071457,3.44946 -0.156674,0 -0.436711,-0.15185 -0.622303,-0.33744 z m 33.353249,-1.32148 c -1.55487,-0.90355 -2.901,-1.73962 -2.9914,-1.85794 -0.0904,-0.11831 -0.16436,-0.35442 -0.16436,-0.52468 0,-0.38807 0.55232,-0.95506 0.93035,-0.95506 0.33567,0 5.7356,3.06793 6.07147,3.44945 0.12656,0.14377 0.2301,0.40545 0.2301,0.58152 0,0.40804 -0.55402,0.96806 -0.94732,0.95758 -0.166,-0.004 -1.57398,-0.74732 -3.12884,-1.65087 z m -16.238955,0.74025 c -4.113314,-0.58769 -7.475288,-3.54009 -8.642725,-7.58982 -0.423209,-1.46807 -0.423209,-4.13113 0,-5.5992 1.876751,-6.510264 9.158878,-9.588056 15.141294,-6.399465 4.048656,2.157916 6.232836,7.103475 5.143596,11.646555 -0.91207,3.80416 -3.88297,6.81048 -7.631738,7.72273 -1.076973,0.26208 -2.981662,0.36619 -4.010427,0.2192 z m -19.911099,-9.81545 c -0.149892,-0.19055 -0.272524,-0.44884 -0.272524,-0.57398 0,-0.12513 0.122632,-0.38342 0.272524,-0.57396 l 0.27252,-0.34646 H 76.9043 c 3.299609,0 3.488199,0.0132 3.73791,0.26298 0.146098,0.14609 0.262975,0.4383 0.262975,0.65744 0,0.21915 -0.116877,0.51135 -0.262975,0.65745 -0.249711,0.24971 -0.438301,0.26298 -3.73791,0.26298 h -3.474924 z m 35.229624,0.0835 c -0.14611,-0.1461 -0.26299,-0.43829 -0.26299,-0.65745 0,-0.21914 0.11688,-0.51135 0.26299,-0.65744 0.24974,-0.24975 0.43829,-0.26298 3.74744,-0.26298 3.30915,0 3.49771,0.0131 3.74745,0.26298 0.14609,0.14609 0.26299,0.4383 0.26299,0.65744 0,0.21916 -0.1169,0.51135 -0.26299,0.65745 -0.24974,0.24975 -0.4383,0.26298 -3.74745,0.26298 -3.30915,0 -3.4977,-0.0131 -3.74744,-0.26298 z M 78.801356,96.964982 c -1.554863,-0.904447 -2.870293,-1.687212 -2.923174,-1.739483 -0.05289,-0.05228 -0.133456,-0.281578 -0.179052,-0.509557 -0.06697,-0.334802 -0.01799,-0.479411 0.254532,-0.751958 0.185591,-0.185591 0.462051,-0.33744 0.614351,-0.33744 0.329604,0 5.747682,3.075126 6.079408,3.450478 0.496838,0.562177 0.04601,1.555202 -0.698791,1.539278 -0.17614,-0.0041 -1.592411,-0.746865 -3.147274,-1.651318 z m 27.672534,1.335416 c -0.3521,-0.352117 -0.41615,-0.819823 -0.15838,-1.156657 0.23875,-0.311941 5.85437,-3.517197 6.16216,-3.517197 0.34346,0 0.9054,0.572914 0.9054,0.923093 0,0.152683 -0.0576,0.385418 -0.12822,0.517194 -0.16684,0.311744 -5.79787,3.556308 -6.17205,3.556308 -0.15738,0 -0.43139,-0.145234 -0.60891,-0.322741 z M 86.668589,93.067683 c -0.345197,-0.278287 -3.396593,-5.701043 -3.396593,-6.036223 0,-0.553464 0.350973,-0.899844 0.911782,-0.899844 0.276319,0 0.563382,0.07396 0.637918,0.164361 0.07452,0.0904 0.850987,1.397032 1.725462,2.903625 1.670156,2.87745 1.843575,3.367689 1.34949,3.81483 -0.284165,0.257166 -0.93984,0.285598 -1.228059,0.05325 z m 14.440611,-0.0761 c -0.42358,-0.468034 -0.26034,-0.912975 1.37911,-3.75919 0.8782,-1.524633 1.68831,-2.846021 1.80024,-2.936419 0.30148,-0.243489 0.99976,-0.200999 1.25052,0.07609 0.43876,0.484817 0.27362,0.940423 -1.37157,3.784243 -0.87404,1.510852 -1.6505,2.820964 -1.72545,2.911362 -0.2099,0.25314 -1.07985,0.203468 -1.33285,-0.0761 z m -6.989324,-1.754341 c -0.144636,-0.08377 -0.306448,-0.216533 -0.359589,-0.29503 -0.05313,-0.0785 -0.0975,-1.716363 -0.09861,-3.639693 -0.0017,-3.222295 0.01689,-3.514055 0.238446,-3.714572 0.330839,-0.299408 1.015882,-0.276175 1.337413,0.04537 0.249435,0.249433 0.262979,0.438295 0.262979,3.667135 0,3.050801 -0.02389,3.432389 -0.230102,3.676097 -0.289232,0.341815 -0.807652,0.459283 -1.150534,0.2607 z"
           id="path9"
           sodipodi:nodetypes="scccscsssssscssscsssssscssssssssssscscssssscssscssssscsssssssssssssssscssssssssssssssssssssssssccsscss" /><rect
           style="fill:none;stroke:#8d8b8d;stroke-width:2.67581;stroke-linecap:round;stroke-linejoin:miter;stroke-dasharray:none;stroke-opacity:1;paint-order:stroke fill markers"
           id="rect9"
           width="64.852982"
           height="84.15033"
           x="72.573509"
           y="78.768547" /></g></g></g></svg>
