<?xml version="1.0" encoding="UTF-8" standalone="no"?>
<!-- Created with Inkscape (http://www.inkscape.org/) -->

<svg
   width="204.68939mm"
   height="162.18593mm"
   viewBox="0 0 204.68939 162.18593"
   version="1.1"
   id="svg1"
   xml:space="preserve"
   inkscape:export-filename="neu-blase.svg"
   inkscape:export-xdpi="120.95238"
   inkscape:export-ydpi="120.95238"
   xmlns:inkscape="http://www.inkscape.org/namespaces/inkscape"
   xmlns:sodipodi="http://sodipodi.sourceforge.net/DTD/sodipodi-0.dtd"
   xmlns="http://www.w3.org/2000/svg"
   xmlns:svg="http://www.w3.org/2000/svg"><sodipodi:namedview
     id="namedview1"
     pagecolor="#ffffff"
     bordercolor="#000000"
     borderopacity="0.25"
     inkscape:showpageshadow="2"
     inkscape:pageopacity="0.0"
     inkscape:pagecheckerboard="0"
     inkscape:deskcolor="#d1d1d1"
     inkscape:document-units="mm" /><defs
     id="defs1" /><g
     inkscape:label="Ebene 1"
     inkscape:groupmode="layer"
     id="layer1"
     transform="translate(-1.0262158,-8.9016139)"><path
       style="fill:#c6c6c6;fill-opacity:1;stroke:none;stroke-width:2.77299;stroke-linecap:round;stroke-linejoin:miter;stroke-dasharray:none;stroke-opacity:1;paint-order:stroke fill markers"
       d="m 38.259633,134.04903 -34.1436824,29.56001 0.7483547,3.18051 128.6234547,-0.0935 7.57709,-1.77734 26.37951,-29.93419 L 113.937,132.833 Z"
       id="path24" /><path
       style="fill:#c6c6c6;fill-opacity:1;stroke:none;stroke-width:2.77299;stroke-linecap:round;stroke-linejoin:miter;stroke-dasharray:none;stroke-opacity:1;paint-order:stroke fill markers"
       d="m 172.44898,152.71112 11.55272,-3.97563 9.21412,1.07578 3.13374,6.64163 -5.0514,8.83994 -11.9269,4.5369 -8.69962,-2.19829 -4.06918,-4.49013 2.05797,-7.53032 z"
       id="path25" /><path
       id="path26"
       style="fill:#c6c6c6;fill-opacity:1;stroke:none;stroke-width:2.77299;stroke-linecap:round;stroke-linejoin:miter;stroke-dasharray:none;stroke-opacity:1;paint-order:stroke fill markers"
       d="m 177.0724,11.509375 -144.29714,0.380339 0.01189,103.941456 145.31051,-0.70435 z m -8.99584,9.29349 0.19844,85.195835 H 41.738021 L 41.580408,21.02404 Z" /><path
       id="path28"
       style="fill:#ffffff;fill-opacity:1;stroke:none;stroke-width:2.77299;stroke-linecap:round;stroke-linejoin:miter;stroke-dasharray:none;stroke-opacity:1;paint-order:stroke fill markers"
       d="M 168.07656,20.802865 41.580408,21.02404 41.738021,105.9987 H 168.275 Z m -67.75038,4.78162 18.28829,1.122412 15.76182,10.196277 8.84029,15.01407 1.26246,13.610539 -3.7884,14.218771 -11.97343,14.920536 -11.22567,5.93969 -15.99593,1.02939 L 84.891459,96.303682 72.964539,86.294474 66.790755,75.06932 65.060111,61.692358 68.614933,49.064189 74.133976,38.353215 85.780294,29.27935 Z" /><path
       style="fill:#000000"
       d="m 172.9451,170.63496 c -3.86633,-0.93584 -6.66153,-3.15319 -7.79548,-6.18393 -0.7282,-1.94629 -0.74188,-3.34605 -0.0542,-5.5489 2.08078,-6.66574 10.3537,-11.88149 19.52149,-12.30754 4.39611,-0.20429 7.60595,0.59897 10.46236,2.6182 0.66076,0.46711 1.92972,-0.19402 4.12091,-2.147 3.43726,-3.06357 3.13925,-5.20167 -1.01937,-7.31363 -3.78946,-1.92448 -9.76626,-2.9075 -17.67776,-2.9075 -4.90779,0 -11.45858,0.0229 -11.45858,0.58363 0,0.35113 -5.13014,6.44505 -12.87816,15.29754 -14.0875,16.09564 -13.91409,15.93323 -17.72163,16.59629 -2.27843,0.39677 -132.9388751,0.42987 -134.6450938,0.0341 -1.7439636,-0.40452 -2.5851187,-1.42309 -2.7425053,-3.32097 -0.0905938,-1.09244 0.016618,-1.90157 0.3431361,-2.58965 0.5547435,-1.16904 31.881588,-28.89868 34.087298,-30.17312 2.921716,-1.68814 3.056331,-1.69744 24.632653,-1.7017 l 19.774052,-0.004 2.862616,-2.66343 2.862616,-2.66342 -0.08124,-3.99332 -0.08125,-3.99332 -26.255261,-0.14638 c -25.945966,-0.14467 -26.264785,-0.1535 -27.063677,-0.75003 -0.444628,-0.33201 -1.080054,-0.96748 -1.412057,-1.41216 l -0.603642,-0.80851 V 63.556034 11.97576 L 30.82527,10.990122 C 31.211907,10.448021 32.068276,9.7592314 32.728313,9.4594785 33.887954,8.932833 36.325424,8.9142566 105.08407,8.9080433 l 71.15569,-0.00643 1.30634,0.6587457 c 0.95582,0.481996 1.48373,1.010571 1.9675,1.969996 l 0.66117,1.311251 -0.0756,51.147379 c -0.0756,51.143495 -0.0757,51.147435 -0.67926,51.955865 -0.332,0.44467 -0.96742,1.08012 -1.41203,1.41213 -0.79639,0.59467 -1.15045,0.60581 -23.84314,0.75003 l -23.03476,0.14638 -0.0799,4.99477 -0.0799,4.99477 -1.45721,1.4353 c -0.80146,0.78941 -1.4572,1.53629 -1.4572,1.65974 0,0.12345 8.6625,0.26015 19.25001,0.30378 17.3036,0.0713 19.35362,0.12895 20.27473,0.57005 0.83851,0.40154 8.62491,0.51589 14.25495,0.62931 11.31465,0.22792 17.81142,1.9285 21.57286,5.64685 4.11076,4.06367 2.66529,9.14062 -3.83036,13.45349 -1.12383,0.74618 -1.60722,1.24515 -1.51448,1.5633 0.64691,2.21944 0.28186,4.82507 -1.03958,7.4203 -0.90845,1.78412 -4.44275,5.18201 -6.90117,6.63479 -5.0984,3.01287 -12.18996,4.28238 -17.17768,3.07512 z m 8.65168,-4.07907 c 4.13669,-0.85887 8.84547,-3.62981 11.0608,-6.50886 2.69337,-3.50031 2.07642,-6.62779 -1.6704,-8.46766 -1.59391,-0.78269 -1.89354,-0.82713 -5.49198,-0.81452 -3.32441,0.0117 -4.10328,0.11248 -6.15446,0.7967 -2.64424,0.88205 -5.30991,2.3999 -7.43636,4.23431 -1.63836,1.41335 -3.24379,4.30848 -3.24379,5.84966 0,2.29239 2.06949,4.30132 5.18726,5.03547 1.76728,0.41614 5.42663,0.35707 7.74893,-0.1251 z m -42.20329,-3.58316 c 0.90824,-0.48531 4.32008,-4.18053 12.84036,-13.90685 l 11.60347,-13.24593 -61.82461,-0.0739 -61.824621,-0.0739 -1.596944,0.65943 c -1.281566,0.5292 -4.573852,3.28016 -16.670737,13.9297 -8.290586,7.29865 -15.0737932,13.32759 -15.0737932,13.39765 0,0.0701 29.5447432,0.093 65.6549852,0.051 l 65.65499,-0.0764 z M 17.138156,161.17868 c -0.217127,-0.1376 -0.348876,-0.45083 -0.292775,-0.69608 0.0561,-0.24524 5.635464,-5.39636 12.398587,-11.44693 l 12.296585,-11.00102 56.940897,0.0637 c 51.66702,0.0579 56.94916,0.10666 57.03012,0.52704 0.077,0.39974 -14.51617,17.18894 -18.61972,21.42171 l -1.34824,1.39068 -59.005336,-0.004 c -32.452937,-0.002 -59.18299,-0.11707 -59.400118,-0.25467 z m 10.841093,-2.95022 1.557494,-1.45272 h -3.366922 -3.366922 l -1.557495,1.45272 -1.557495,1.45272 h 3.366923 3.366922 z m 9.023279,-0.0112 1.610267,-1.44524 -3.366922,0.003 -3.366923,0.003 -1.610267,1.44797 -1.610267,1.44798 3.366922,-0.006 3.366923,-0.006 z m 9.023279,-0.0112 1.557494,-1.45272 h -3.366922 -3.366922 l -1.557495,1.45272 -1.557495,1.45271 h 3.366923 3.366922 z m 8.982436,0.0112 1.441867,-1.46388 h -3.366922 -3.366923 l -1.441867,1.46388 -1.441867,1.46388 h 3.366922 3.366922 z m 9.076051,0 1.441868,-1.46388 -3.355917,0.0112 -3.355916,0.0112 -1.557495,1.45272 -1.557494,1.45272 h 3.471543 3.471544 z m 9.076052,0 1.441867,-1.46388 h -3.450877 -3.450877 l -1.515307,1.45756 -1.515306,1.45757 3.524316,0.006 3.524316,0.006 z m 9.368827,0 1.441867,-1.46388 h -3.659698 -3.659698 l -1.441867,1.46388 -1.441868,1.46388 h 3.659699 3.659698 z m 8.96557,0.0732 1.281585,-1.39068 -3.353291,-0.0833 -3.353291,-0.0833 -1.474025,1.47402 -1.474025,1.47403 h 3.54573 3.545731 z m 9.008327,-0.10298 1.28568,-1.43409 h -3.346115 -3.346112 l -1.441868,1.46388 -1.441867,1.46388 3.502304,-0.0298 3.502305,-0.0298 z m 8.96148,0.0298 1.44187,-1.46388 -3.50231,0.0132 -3.5023,0.0132 -1.2683,1.4507 -1.26831,1.4507 h 3.32874 3.32874 z m 9.07605,0 1.44187,-1.46388 h -3.53821 -3.53821 l -1.20839,1.31095 c -0.66462,0.72102 -1.20839,1.37977 -1.20839,1.46388 0,0.0841 1.48713,0.15293 3.30473,0.15293 h 3.30474 z m 8.9338,0.0732 1.225,-1.39068 -3.30911,-0.0833 -3.30911,-0.0833 -1.47403,1.47402 -1.47402,1.47403 h 3.55813 3.55814 z m 9.04352,-0.0732 1.23436,-1.46388 -3.45755,0.0132 -3.45754,0.0132 -1.26831,1.4507 -1.2683,1.4507 h 3.49149 3.49148 z m -103.667027,-4.4028 1.557495,-1.45272 h -3.259813 -3.259814 l -1.444878,1.2443 c -0.794683,0.68436 -1.444943,1.34311 -1.445022,1.46388 -7.9e-5,0.12077 1.41616,0.21456 3.147197,0.20842 l 3.147341,-0.0112 z m 8.888821,0.0223 1.557495,-1.45272 -3.377929,-0.0112 -3.377928,-0.0112 -1.441867,1.46388 -1.441868,1.46388 h 3.262301 3.262301 z m 8.970506,-0.0223 1.557495,-1.45272 h -3.261624 -3.261624 l -1.443211,1.21693 c -0.793766,0.66932 -1.443211,1.32806 -1.443211,1.46388 0,0.13582 1.416303,0.24193 3.14734,0.23579 l 3.147341,-0.0112 z m 8.982436,0.0112 1.441868,-1.46388 h -3.366923 -3.366922 l -1.441867,1.46388 -1.441868,1.46388 h 3.366923 3.366922 z m 8.783276,0 1.441867,-1.46388 -3.209528,0.002 -3.209529,0.002 -1.390685,1.19199 c -0.764877,0.6556 -1.390685,1.3135 -1.390685,1.46199 0,0.1485 1.421256,0.27 3.158346,0.27 h 3.158347 z m 9.076051,0 1.441868,-1.46388 h -3.366923 -3.366922 l -1.441867,1.46388 -1.441867,1.46388 h 3.366922 3.366922 z m 9.368828,0 1.441867,-1.46388 h -3.63761 -3.63761 l -1.25538,1.23206 c -0.690458,0.67764 -1.255379,1.33638 -1.255379,1.46388 0,0.1275 1.553005,0.23182 3.451122,0.23182 h 3.451122 z m 8.783275,0 1.441868,-1.46388 h -3.344835 -3.344834 l -1.255379,1.23206 c -0.690459,0.67764 -1.25538,1.33638 -1.25538,1.46388 0,0.1275 1.421256,0.23182 3.158347,0.23182 h 3.158346 z m 9.076054,0 1.44187,-1.46388 h -3.52967 -3.529671 l -1.234361,1.46388 -1.234361,1.46388 h 3.322163 3.32216 z m 8.78327,0 1.44187,-1.46388 h -3.34483 -3.34484 l -1.25538,1.23206 c -0.69046,0.67764 -1.25538,1.33638 -1.25538,1.46388 0,0.1275 1.42126,0.23182 3.15835,0.23182 h 3.15835 z m 8.96557,0.0732 1.28159,-1.39068 -3.32502,-0.0831 c -3.61857,-0.0904 -3.60176,-0.0962 -5.05476,1.73838 l -0.89186,1.12607 h 3.35423 3.35424 z m 8.99096,-0.0864 1.26831,-1.4507 h -3.30666 -3.30665 l -1.25538,1.23206 c -0.69046,0.67764 -1.25538,1.33638 -1.25538,1.46388 0,0.1275 1.48218,0.22589 3.29373,0.21864 l 3.29373,-0.0132 z m 8.8366,0.0864 1.225,-1.39068 -3.29324,-0.0832 c -3.60106,-0.091 -3.8256,-0.004 -5.30385,2.05943 l -0.57687,0.80513 h 3.36198 3.36198 z m -102.422912,-4.74644 1.557494,-1.45272 -3.220534,-0.002 -3.220534,-0.002 -1.610268,1.44525 -1.610267,1.44524 3.273307,0.009 3.273307,0.009 z m 8.876891,-0.0112 1.441867,-1.46388 -3.209528,0.0127 -3.209529,0.0127 -1.610267,1.44797 -1.610267,1.44798 3.377928,0.003 3.377929,0.003 z m 8.710081,0.1235 c 0.764877,-0.72975 1.390686,-1.38544 1.390686,-1.4571 0,-0.0717 -1.403573,-0.13028 -3.119052,-0.13028 h -3.119051 l -1.547837,1.46388 -1.547836,1.46388 3.276203,-0.007 3.276202,-0.007 z m 8.742645,0.14201 c 0.787224,-0.6591 1.431316,-1.31785 1.431316,-1.46388 0,-0.14603 -1.421255,-0.26551 -3.158346,-0.26551 h -3.158346 l -1.441868,1.46388 -1.441867,1.46388 h 3.168897 3.168897 z m 8.98253,-0.057 c 0.677634,-0.69046 1.232062,-1.34921 1.232062,-1.46388 0,-0.11468 -1.421256,-0.2085 -3.158346,-0.2085 h -3.158347 l -1.441867,1.46388 -1.441867,1.46388 h 3.368152 3.368152 z m 8.990622,-0.2085 1.441867,-1.46388 h -3.304489 -3.304489 l -1.515306,1.45756 -1.515307,1.45756 3.377929,0.006 3.377928,0.006 z m 9.161481,0.2085 c 0.677634,-0.69046 1.232062,-1.34921 1.232062,-1.46388 0,-0.11468 -1.482178,-0.20252 -3.293728,-0.19521 l -3.293729,0.0133 -1.592831,1.45059 -1.592832,1.45059 h 3.654498 3.654499 z m 8.783272,0 c 0.67764,-0.69046 1.23207,-1.34921 1.23207,-1.46388 0,-0.11468 -1.42126,-0.2085 -3.158351,-0.2085 h -3.158346 l -1.441868,1.46388 -1.441867,1.46388 h 3.368152 3.368152 z m 8.78328,0 c 0.67763,-0.69046 1.23206,-1.34921 1.23206,-1.46388 0,-0.11468 -1.42125,-0.2085 -3.15835,-0.2085 h -3.15834 l -1.44187,1.46388 -1.44187,1.46388 h 3.36816 3.36815 z m 9.10519,-0.23829 1.28568,-1.43409 h -3.34611 -3.34612 l -1.44186,1.46388 -1.44187,1.46388 3.5023,-0.0298 3.50231,-0.0298 z m 8.81509,0.0298 1.22563,-1.46388 h -3.36692 -3.36692 l -1.22563,1.46388 -1.22563,1.46388 h 3.36692 3.36693 z m 8.74599,0.15293 c 0.66462,-0.72103 1.20839,-1.37977 1.20839,-1.46388 0,-0.0841 -1.48217,-0.15287 -3.29372,-0.15279 l -3.29373,1.4e-4 -1.26054,1.46374 -1.26054,1.46374 h 3.34587 3.34588 z m 8.74813,0.10442 c 0.60344,-0.66359 1.14107,-1.32234 1.19474,-1.46388 0.0537,-0.14154 -1.39556,-0.24395 -3.22053,-0.22756 l -3.31813,0.0298 -1.28567,1.4341 -1.28568,1.43409 h 3.40906 3.40907 z m -101.712042,-4.51423 1.419011,-1.30586 h -3.183683 -3.183682 l -1.455863,1.30437 -1.455862,1.30437 3.220534,0.001 3.220535,10e-4 z m 8.783276,0 1.41901,-1.30586 h -3.334289 -3.334289 l -1.29302,1.31749 -1.29302,1.31749 3.208299,-0.0116 3.208298,-0.0116 z m 8.712045,0.0116 1.408505,-1.31749 h -3.293421 -3.293422 l -1.29302,1.31749 -1.29302,1.31749 h 3.177937 3.177936 z m 8.752987,0 1.29302,-1.31749 h -3.220535 -3.220534 l -1.29302,1.31749 -1.29302,1.31749 h 3.220534 3.220535 z m 8.783275,0 1.29302,-1.31749 h -3.220534 -3.220534 l -1.29302,1.31749 -1.29302,1.31749 h 3.220534 3.220534 z m 8.783276,0 1.29302,-1.31749 h -3.220534 -3.220535 l -1.29302,1.31749 -1.29302,1.31749 h 3.220535 3.220534 z m 9.076051,0 1.29302,-1.31749 h -3.366922 -3.366922 l -1.29302,1.31749 -1.29302,1.31749 h 3.366922 3.366923 z m 8.894522,-0.0276 1.13595,-1.28991 h -3.19762 -3.197625 l -1.29302,1.31749 -1.29302,1.31749 3.354687,-0.0276 3.354688,-0.0276 z m 8.77099,0.0276 1.10129,-1.31749 h -3.17415 -3.17415 l -1.29302,1.31749 -1.29302,1.31749 h 3.36588 3.36588 z m 8.78328,0 1.10128,-1.31749 h -3.17415 -3.17414 l -1.29302,1.31749 -1.29302,1.31749 h 3.36588 3.36588 z m 8.78327,0 1.10129,-1.31749 -3.3083,0.01 -3.3083,0.01 -1.11834,1.30789 -1.11833,1.30789 h 3.32535 3.32535 z m 8.81504,0 1.07958,-1.31749 h -3.35125 -3.35126 l -1.07958,1.31749 -1.07959,1.31749 h 3.35126 3.35125 z m 8.79108,-0.01 1.08739,-1.32702 -3.43038,0.0827 -3.43039,0.0827 -1.02657,1.2443 -1.02657,1.2443 h 3.36956 3.36957 z m -101.110657,-4.22372 1.281951,-1.15909 -3.23431,-0.012 -3.23431,-0.012 -1.143552,1.17111 -1.143552,1.1711 h 3.095911 3.095911 z m 8.747735,-0.012 1.317492,-1.15363 h -3.220535 -3.220534 l -1.317492,1.15363 -1.317491,1.15363 h 3.220534 3.220535 z m 8.636888,0 1.143552,-1.17111 h -3.144902 -3.144902 l -1.23296,1.16379 -1.23296,1.16378 3.23431,0.007 3.23431,0.007 z m 8.783276,0 1.143551,-1.17111 h -3.220534 -3.220534 l -1.143552,1.17111 -1.143552,1.1711 h 3.220534 3.220535 z m 8.783275,0 1.143552,-1.17111 -3.206759,0.012 -3.206758,0.012 -1.281951,1.15909 -1.281951,1.1591 h 3.345158 3.345157 z m 8.636888,0 1.317491,-1.15363 -3.380698,-0.009 -3.380698,-0.009 -1.143552,1.17111 -1.143552,1.1711 3.206759,-0.009 3.206758,-0.009 z m 8.929663,0 1.143552,-1.17111 h -3.366922 -3.366922 l -1.143552,1.17111 -1.143552,1.1711 h 3.366922 3.366922 z m 8.783272,0 1.14356,-1.17111 h -3.22054 -3.22053 l -1.14355,1.17111 -1.14356,1.1711 h 3.22054 3.22053 z m 8.78328,0 1.14355,-1.17111 h -3.36692 -3.36692 l -1.14356,1.17111 -1.14355,1.1711 h 3.36693 3.36692 z m 8.6218,0.0732 0.90588,-1.09791 -3.13877,-0.0837 -3.13877,-0.0837 -1.1816,1.1816 -1.1816,1.1816 h 3.41449 3.4145 z m 8.75913,-0.098 0.98548,-1.14632 h -3.19508 -3.19507 l -1.14355,1.17111 -1.14356,1.1711 3.35315,-0.0248 3.35315,-0.0248 z m 8.67612,0.0248 1.14355,-1.17111 h -3.3753 c -3.13409,0 -3.41657,0.0471 -3.95259,0.65875 -1.56103,1.7813 -1.66818,1.68346 1.84382,1.68346 h 3.19697 z m 8.54976,0.23534 c 0.531,-0.51467 0.96546,-1.04167 0.96546,-1.1711 0,-0.12944 -1.42251,-0.23535 -3.16112,-0.23535 h -3.16112 l -1.14355,1.17111 -1.14355,1.1711 h 3.33921 3.33921 z M 175.92467,63.50431 V 13.146863 H 105.07291 34.221157 l -0.07403,50.431236 -0.07402,50.431231 70.925783,-0.0738 70.92578,-0.0738 z m -134.938345,43.0141 c -0.09774,-0.25471 -0.177711,-19.661353 -0.177711,-43.125878 0,-32.79179 0.08129,-42.744063 0.351331,-43.014105 0.271096,-0.271096 14.842341,-0.351331 63.804225,-0.351331 57.29408,0 63.49755,0.04465 63.91297,0.460076 0.41404,0.414042 0.46007,4.729154 0.46007,43.125883 0,32.794149 -0.0813,42.747095 -0.35133,43.017135 -0.2711,0.27111 -14.90509,0.35133 -64.08659,0.35133 -57.848131,0 -63.751668,-0.0428 -63.912965,-0.46311 z M 167.58056,63.650698 V 21.783751 H 104.92653 42.272493 v 41.671763 c 0,22.919469 0.08783,41.759596 0.195184,41.866946 0.107351,0.10735 28.301666,0.19518 62.654033,0.19518 h 62.45885 z M 101.17421,103.73058 C 84.171667,102.21797 69.47055,89.946311 65.263531,73.754377 64.186391,69.608688 63.842954,66.335174 64.019221,61.894043 64.414929,51.923954 68.090016,43.311914 75.05151,36.041455 81.057743,29.768653 88.044755,25.88032 96.728802,23.977854 c 3.335118,-0.730645 10.920348,-0.908458 14.503058,-0.33998 9.17217,1.455375 16.71705,5.280829 23.13321,11.729162 7.40114,7.438247 11.29867,16.19042 11.76346,26.41569 0.88083,19.378167 -12.38305,36.546538 -31.72352,41.061954 -2.28658,0.53385 -8.69548,1.27522 -10.06404,1.16419 -0.24154,-0.0196 -1.66658,-0.14483 -3.16676,-0.27829 z m 1.99566,-10.655909 v -7.173009 h -6.880232 c -3.784128,0 -6.880232,0.0688 -6.880232,0.152887 0,0.353827 2.490678,5.076068 3.316611,6.288182 1.250663,1.835434 3.89945,4.579513 5.45959,5.656001 1.16481,0.803714 4.182273,2.223568 4.764683,2.241998 0.12077,0.004 0.21958,-3.220905 0.21958,-7.166059 z m 7.82883,5.539579 c 3.05045,-1.782121 6.39852,-5.75304 8.67589,-10.289878 0.58401,-1.163424 1.06183,-2.18448 1.06183,-2.269013 0,-0.08453 -3.0961,-0.153697 -6.88023,-0.153697 h -6.88023 v 7.159005 7.159003 l 1.31457,-0.395625 c 0.72301,-0.217595 1.94169,-0.762003 2.70817,-1.209795 z M 92.299681,97.65794 C 92.078756,97.360771 91.203775,96.207966 90.355276,95.096151 89.506778,93.984337 88.017147,91.460744 87.044985,89.488167 L 85.277417,85.901662 H 80.30649 c -5.879059,0 -5.758791,-0.262834 -1.682988,3.677997 3.637047,3.516603 6.833484,5.671433 11.31605,7.628544 2.594249,1.132662 2.912989,1.1934 2.360129,0.449737 z m 28.989779,-0.945854 c 1.35085,-0.631932 3.55793,-1.882105 4.90462,-2.778164 2.46337,-1.639069 6.92845,-5.634998 8.03843,-7.193811 l 0.59703,-0.838449 h -5.08964 -5.08964 l -0.67823,1.683462 c -1.32191,3.281171 -3.792,7.278002 -5.99485,9.700208 l -0.90046,0.990126 0.87833,-0.207203 c 0.48308,-0.113962 1.98357,-0.724238 3.33441,-1.356169 z M 84.13944,82.250093 c 0,-0.07604 -0.322093,-1.407562 -0.715763,-2.958931 C 82.74337,76.610213 82.003049,71.697874 81.629131,67.38359 l -0.17128,-1.976237 H 74.42706 67.39627 l 0.190687,1.537073 c 0.663293,5.346603 2.257358,10.439982 4.424977,14.138743 l 0.764888,1.305183 h 5.681309 c 3.12472,0 5.681309,-0.06222 5.681309,-0.138259 z m 19.03043,-8.352241 v -8.490499 l -9.002857,-1.82e-4 -9.002857,-1.82e-4 0.07799,1.537255 c 0.235038,4.632954 1.043204,9.698701 2.1486,13.467871 l 0.579578,1.976237 h 7.599774 7.599772 z m 19.4828,6.807039 c 1.14987,-3.919206 2.18261,-10.357329 2.18261,-13.606396 v -1.691142 h -8.92966 -8.92966 v 8.490499 8.4905 h 7.59139 7.5914 z m 16.08685,-0.946304 c 2.04557,-4.072972 3.22552,-8.114733 3.7837,-12.960549 l 0.16019,-1.390685 h -6.98687 -6.98688 l -0.17653,0.658745 c -0.0971,0.362311 -0.17834,1.366458 -0.18054,2.231439 -0.005,2.152062 -0.76075,7.173825 -1.62743,10.820523 -0.39532,1.663414 -0.71877,3.079717 -0.71877,3.147341 0,0.06762 2.56778,0.122951 5.70619,0.122951 h 5.70619 z M 81.635121,59.62503 c 0.520204,-5.799332 1.092576,-9.240639 2.361739,-14.199629 l 0.206059,-0.805134 h -5.737931 -5.73793 l -1.283345,2.561789 c -2.173311,4.33832 -3.271035,8.026305 -3.834351,12.882137 l -0.178314,1.537074 h 7.013402 7.013401 z m 21.534749,-6.514263 v -8.4905 h -7.603993 -7.603993 l -0.440622,1.537074 c -1.239808,4.324966 -2.196395,10.166666 -2.205355,13.467689 l -0.0054,1.976237 h 8.929663 8.92966 z m 21.66541,6.743911 c 0,-3.158054 -1.04245,-9.547082 -2.2349,-13.697337 l -0.44163,-1.537074 h -7.5914 -7.59139 v 8.4905 8.4905 h 8.92966 8.92966 z m 17.68794,0.355903 c -0.56429,-4.898836 -1.79295,-9.075235 -3.83041,-13.020126 l -1.32745,-2.570188 h -5.67948 c -3.12372,0 -5.67949,0.110674 -5.67949,0.245943 0,0.135268 0.26226,1.271391 0.58281,2.524718 0.80455,3.145769 1.41812,6.865078 1.61977,9.818701 0.0934,1.368727 0.23493,2.916779 0.31442,3.440116 l 0.14451,0.951522 h 7.00776 7.00775 z M 86.173799,39.423496 c 1.328176,-3.296723 3.849932,-7.371629 5.979085,-9.661603 1.094519,-1.177191 0.833509,-1.18561 -1.898077,-0.06122 -5.05018,2.078779 -11.014772,6.440375 -14.052577,10.275916 l -0.895269,1.130369 h 5.094304 5.094305 z M 103.16987,34.04374 v -7.063218 l -0.95152,0.187952 c -2.834326,0.559858 -6.680172,3.591025 -9.207676,7.257181 -1.273688,1.847491 -3.601268,6.066428 -3.601268,6.527605 0,0.08453 3.096104,0.153697 6.880232,0.153697 h 6.880232 z m 17.56655,6.90848 c 0,-0.0851 -0.41208,-0.974412 -0.91573,-1.976237 -2.63271,-5.236734 -6.01191,-9.050465 -9.61762,-10.854326 -3.47652,-1.739236 -3.22711,-2.199758 -3.22711,5.95868 v 7.02662 h 6.88023 c 3.78413,0 6.88023,-0.06963 6.88023,-0.154737 z m 13.23142,-0.943172 c -2.10858,-2.657827 -6.25324,-6.08054 -10.00866,-8.265287 -1.91027,-1.111322 -5.95272,-2.93339 -6.50802,-2.93339 -0.1629,0 0.19075,0.538978 0.78589,1.197728 1.64002,1.815306 3.66801,5.070295 5.13435,8.240826 l 1.3175,2.84867 5.07498,0.0047 5.07499,0.0047 z"
       id="path23"
       sodipodi:nodetypes="cscssssssssssssccccccsssccccsscsscsssscccssssssscssccssscssssscscccsssscccssccssccccccccccccccccccccccccccccccccccccccccccccccccccccccccccccccccccccccccccccccccccccccccccccccccccsssccccccccccccccccccccccccssccccccccccccccccssccccccccccccccccssscccccccccccccccsssccccccssscccccccccccccccsssccccssccccccccsssccccsccccccccccccccccccccccccssccccccssscccccsssscccccscccccccccssscccccsssscccccsssscccccsccccccccccccccccccssscccccsssscccccsccccccccccccccccccccccccccccccccccccccccccccccccccccccccccccccccccccccccccccccccccccccccccccccccccccccccccccccccccccccccccccccccccccccccccccccccccccccccccccccccccccccccccccccccccccccccccccccccccccccccccccccccccccccccccsssccssscccccscccccccccsssssssssccccsssccsssssssssssscsssscssssscccssssscssssssscccsscssssscccsscssccccssccccsscccccccssscccscssscssscccsscccsccccscccccsscccccccssscssscscccssssscccsccssssccscsscssssssscccs" /></g></svg>
