<?xml version="1.0" encoding="UTF-8" standalone="no"?>
<!-- Created with Inkscape (http://www.inkscape.org/) -->

<svg
   width="210mm"
   height="175.198mm"
   viewBox="0 0 210 175.198"
   version="1.1"
   id="svg1"
   xml:space="preserve"
   inkscape:export-filename="heute-karte.svg"
   inkscape:export-xdpi="120.95238"
   inkscape:export-ydpi="120.95238"
   xmlns:inkscape="http://www.inkscape.org/namespaces/inkscape"
   xmlns:sodipodi="http://sodipodi.sourceforge.net/DTD/sodipodi-0.dtd"
   xmlns="http://www.w3.org/2000/svg"
   xmlns:svg="http://www.w3.org/2000/svg"><sodipodi:namedview
     id="namedview1"
     pagecolor="#ffffff"
     bordercolor="#000000"
     borderopacity="0.25"
     inkscape:showpageshadow="2"
     inkscape:pageopacity="0.0"
     inkscape:pagecheckerboard="0"
     inkscape:deskcolor="#d1d1d1"
     inkscape:document-units="mm" /><defs
     id="defs1" /><g
     inkscape:label="Ebene 1"
     inkscape:groupmode="layer"
     id="layer1"><path
       style="fill:#ffffff;fill-opacity:1;stroke:none;stroke-width:2.77299;stroke-linecap:round;stroke-linejoin:miter;stroke-dasharray:none;stroke-opacity:1;paint-order:stroke fill markers"
       d="m 98.124411,139.14279 -10.98828,-81.982496 -14.1084,15.871954 -20.4391,13.113581 -18.49467,4.928899 3.25578,26.498472 18.63033,-0.40697 18.58511,6.55679 15.14845,8.90819 z"
       id="path17" /><path
       style="fill:#ff0000;fill-opacity:1;stroke:none;stroke-width:2.77299;stroke-linecap:round;stroke-linejoin:miter;stroke-dasharray:none;stroke-opacity:1;paint-order:stroke fill markers"
       d="m 32.805261,90.643999 3.38933,29.416851 9.5285,24.74852 1.98244,8.69715 -6.13917,3.90093 -5.75547,-3.26143 -13.36548,-33.70148 -9.59244,-0.89529 -8.6971809,-6.39497 -0.57554,-11.12724 5.43573,-6.778661 z"
       id="path16" /><path
       style="fill:#000000"
       d="m 38.449191,158.58977 c -0.80685,-0.28477 -1.9194,-1.0657 -2.82696,-1.98431 -1.46484,-1.48268 -1.63713,-1.86402 -8.14309,-18.02323 -3.65563,-9.07967 -6.73371,-16.5989 -6.84019,-16.70938 -0.10648,-0.11049 -1.38415,-0.0604 -2.83928,0.11121 -4.89655,0.57761 -8.9126009,-0.71858 -12.0990209,-3.905 -2.27185,-2.27185 -3.43062,-4.73824 -3.9926901,-8.49825 -0.53182,-3.55759 -0.55571,-4.95622 -0.12046,-7.0498 1.0753601,-5.172471 5.3953401,-9.595521 10.380511,-10.628196 0.89979,-0.186391 7.5255,-1.062736 14.7238,-1.947434 16.8642,-2.072672 20.5671,-2.996223 28.70706,-7.159917 10.80442,-5.526596 22.25551,-16.317729 29.26264,-27.576163 1.48945,-2.393111 2.14285,-2.844462 3.59146,-2.480883 0.52949,0.132894 0.81757,0.492256 1.03924,1.296411 0.16867,0.611903 1.4522,10.549166 2.85229,22.082807 l 5.79964,47.400025 c 1.51224,12.33665 1.98791,17.04027 1.76534,17.45616 -0.34197,0.63896 -1.21046,1.17782 -1.89833,1.17782 -0.25113,0 -1.8327,-1.23944 -3.5146,-2.75431 -11.44942,-10.31238 -23.35907,-16.68843 -36.28883,-19.4279 -2.95639,-0.62638 -4.75913,-0.80326 -9.4533,-0.92755 -4.98074,-0.13188 -9.85258,0.14363 -10.29092,0.58197 -0.0655,0.0655 2.48448,6.55313 5.66662,14.41694 3.36688,8.32033 5.8676,14.91505 5.98156,15.77417 0.62933,4.74407 -3.48756,9.33045 -8.31914,9.26787 -0.9971,-0.0129 -2.41161,-0.23479 -3.14335,-0.49306 z m 4.55147,-4.0535 c 0.53408,-0.22315 1.3329,-0.83575 1.77515,-1.36135 1.49192,-1.77304 1.38554,-2.1575 -4.88261,-17.64511 -3.1277,-7.72804 -5.79277,-14.32934 -5.92238,-14.66956 l -0.23566,-0.61857 -4.06106,0.51348 c -2.23358,0.28242 -4.13813,0.59056 -4.23233,0.68476 -0.16667,0.16667 11.32908,28.97637 12.44611,31.19142 0.5877,1.16539 2.25895,2.2742 3.46292,2.29752 0.37335,0.007 1.11579,-0.16943 1.64986,-0.39259 z m 52.16323,-20.78761 c -0.0851,-0.36809 -2.12993,-16.86544 -4.54408,-36.660771 -2.41414,-19.795325 -4.44931,-36.058427 -4.5226,-36.140226 -0.0733,-0.0818 -0.41886,0.243474 -0.76791,0.722828 -4.1458,5.693338 -11.44896,13.416194 -16.19471,17.125376 -6.34689,4.960614 -14.21718,9.306561 -20.7289,11.446435 -2.79667,0.91904 -8.07579,2.091257 -12.1211,2.691467 -0.78985,0.11719 -1.11454,0.3135 -1.11234,0.67256 0.007,1.06161 2.60304,21.505561 2.75006,21.652581 0.085,0.085 1.60844,-0.004 3.3855,-0.19788 8.71729,-0.95066 19.55905,0.6493 28.96049,4.2738 7.6677,2.9561 17.66985,8.95359 23.34986,14.00103 1.39121,1.23628 1.75882,1.33445 1.54573,0.4128 z m -70.44499,-16.91907 c 5.88547,-0.68824 8.48258,-1.10327 8.58572,-1.37206 0.12839,-0.33457 -2.17412,-20.518721 -2.43685,-21.361821 -0.15528,-0.49829 -17.94986,1.76624 -19.59402,2.49352 -2.8044809,1.24056 -4.9518109,4.025491 -5.5545809,7.203891 -0.3194,1.68418 0.0715,5.53355 0.79187,7.79892 0.56362,1.77232 2.91915,4.40775 4.7178809,5.2785 1.3209,0.63944 3.76197,1.18441 4.60595,1.02829 0.2454,-0.0454 4.24321,-0.52655 8.88403,-1.06924 z"
       id="path15"
       sodipodi:nodetypes="sssscsssssssssccsssssssssssssscssscsssscssscscssssssssssss" /></g></svg>
