<?xml version="1.0" encoding="UTF-8" standalone="no"?>
<!-- Created with Inkscape (http://www.inkscape.org/) -->

<svg
   width="210mm"
   height="175.198mm"
   viewBox="0 0 210 175.198"
   version="1.1"
   id="svg1"
   xml:space="preserve"
   inkscape:export-filename="neu-megafon"
   inkscape:export-xdpi="120.95238"
   inkscape:export-ydpi="120.95238"
   xmlns:inkscape="http://www.inkscape.org/namespaces/inkscape"
   xmlns:sodipodi="http://sodipodi.sourceforge.net/DTD/sodipodi-0.dtd"
   xmlns="http://www.w3.org/2000/svg"
   xmlns:svg="http://www.w3.org/2000/svg"><sodipodi:namedview
     id="namedview1"
     pagecolor="#ffffff"
     bordercolor="#000000"
     borderopacity="0.25"
     inkscape:showpageshadow="2"
     inkscape:pageopacity="0.0"
     inkscape:pagecheckerboard="0"
     inkscape:deskcolor="#d1d1d1"
     inkscape:document-units="mm" /><defs
     id="defs1" /><g
     inkscape:label="Ebene 1"
     inkscape:groupmode="layer"
     id="layer1"><g
       id="g21"
       transform="translate(60.079946,-168.80418)"><path
         style="fill:#ffffff;fill-opacity:1;stroke:none;stroke-width:2.77299;stroke-linecap:round;stroke-linejoin:miter;stroke-dasharray:none;stroke-opacity:1;paint-order:stroke fill markers"
         d="m 139.28751,243.58944 -35.82748,-27.87621 -44.246466,11.50596 -3.367598,10.85114 5.706205,23.19899 c 0,0 50.420399,-3.64823 52.104199,-3.83531 1.68379,-0.18709 18.61532,-7.01583 18.61532,-7.01583 z"
         id="path21" /><path
         id="path20"
         style="fill:#ff0000;fill-opacity:1;stroke:none;stroke-width:2.77299;stroke-linecap:round;stroke-linejoin:miter;stroke-dasharray:none;stroke-opacity:1;paint-order:stroke fill markers"
         d="m 92.044511,198.20031 -7.156152,7.20266 -9.260934,-3.64836 -5.09788,8.41912 -9.354468,-1.59008 -1.169437,10.00921 -8.699728,1.07539 2.806547,9.21442 -8.232055,5.47253 6.782015,8.60568 -5.846672,6.73551 7.904944,7.15615 -5.191931,4.8643 -15.434717,10.38335 11.085111,-0.37414 19.223117,-3.69538 3.040124,8.55968 10.663949,-3.18068 5.846671,8.13852 8.606193,-5.84667 7.38973,6.64145 7.436752,-7.34322 10.00973,4.16306 3.08663,-8.3721 11.36572,0.84181 -0.65474,-8.8868 10.61744,-1.96474 -3.55483,-9.68158 c 0,0 7.99793,-5.98695 8.27857,-6.12727 0.28063,-0.14031 -6.68848,-7.76387 -6.68848,-7.76387 l 4.44365,-8.09201 -8.51265,-4.20905 1.82417,-9.54153 -9.9627,-0.60824 -1.91771,-8.9333 -10.14925,1.40301 -5.70611,-7.20317 -9.6821,4.63072 z m -13.907162,31.14745 c 0.120055,-0.005 0.194295,-0.003 0.20774,0.0109 0.15559,0.15559 2.795704,22.41072 2.720764,22.93503 -0.0715,0.5004 -0.362681,0.64915 -1.53169,0.78342 l -1.443839,0.16588 -6.438884,-6.65954 c -4.555345,-4.71135 -6.460897,-6.50025 -6.513297,-6.11487 -0.0407,0.29962 0.302861,3.55633 0.763261,7.23728 l 0.837158,6.69313 -1.209229,0.20102 c -0.665049,0.11057 -1.680937,0.21061 -2.257226,0.22273 l -1.047481,0.0222 -1.421102,-11.63547 c -0.781619,-6.39934 -1.381349,-11.67247 -1.332219,-11.71866 0.0491,-0.0462 0.774402,-0.13114 1.611271,-0.18862 l 1.521355,-0.10439 6.596496,6.7598 c 5.743935,5.88667 6.574986,6.63591 6.435266,5.80016 -0.429989,-2.57216 -1.672498,-13.67643 -1.544608,-13.80432 0.124687,-0.1247 3.205883,-0.56865 4.046264,-0.60565 z m 35.404041,3.59306 0.15245,0.91312 c 0.38186,2.28667 1.04386,8.59135 1.04386,9.93996 0,2.5661 -0.87065,4.01205 -3.12281,5.18418 -1.36834,0.71215 -5.7387,1.02096 -6.99027,0.49403 -0.97724,-0.41144 -2.32241,-1.70323 -2.87476,-2.76107 -0.3909,-0.74863 -2.031023,-11.74798 -1.788003,-11.991 0.148153,-0.14816 3.904953,-0.64119 4.028173,-0.52865 0.06,0.0548 0.35685,2.10646 0.6594,4.55889 0.6848,5.55099 0.76261,5.85573 1.68465,6.581 1.09264,0.85947 2.33449,0.75629 3.37033,-0.27957 1.03226,-1.03226 1.03064,-0.9958 0.27751,-6.84248 -0.32513,-2.524 -0.54549,-4.63506 -0.48938,-4.69118 0.0561,-0.0561 0.99004,-0.20937 2.07533,-0.34003 z m -22.715409,2.35903 c 3.955987,-0.0233 6.954303,2.86542 7.318933,7.34374 l 0.08475,1.03508 -5.205367,0.65422 c -2.862957,0.35973 -5.231898,0.66327 -5.264278,0.67489 -0.0324,0.0116 0.08063,0.42179 0.251147,0.91106 0.39562,1.13489 1.86915,2.38228 2.814299,2.38228 1.146579,0 2.699525,-0.76967 3.250964,-1.61127 0.45608,-0.69607 0.685686,-0.76843 2.439645,-0.76843 h 1.936316 l -0.191203,0.95602 c -0.73625,3.68121 -5.926898,6.04848 -10.040214,4.57905 -3.352507,-1.19764 -5.317564,-4.86865 -4.924764,-9.20048 0.319559,-3.52419 2.498519,-6.07423 5.780525,-6.76444 0.599322,-0.12604 1.184107,-0.1884 1.749247,-0.19172 z m -0.118856,3.48247 c -1.420309,0 -2.260666,0.62674 -2.883545,2.14974 l -0.453202,1.10795 0.819071,-0.13953 c 0.45043,-0.0766 1.880979,-0.2761 3.178617,-0.44338 1.297649,-0.16729 2.419538,-0.36437 2.493388,-0.43822 0.0738,-0.0738 -0.3387,-0.60741 -0.91674,-1.18546 -0.851749,-0.85174 -1.27595,-1.0511 -2.237589,-1.0511 z m 43.881555,3.0024 c 0.4522,0.0232 0.90684,0.21904 1.37666,0.5886 0.99992,0.78654 1.09878,2.63846 0.18914,3.5481 -0.67681,0.67681 -2.29941,0.79552 -3.05304,0.22325 -1.27691,-0.96965 -1.2122,-2.97402 0.12609,-3.91139 0.45964,-0.32195 0.90896,-0.47172 1.36115,-0.44856 z m -7.30704,0.89194 c 0.52972,-0.0378 0.99053,0.15287 1.54512,0.58911 1.0321,0.81186 1.10059,2.6346 0.13281,3.53622 -0.7324,0.68234 -2.25113,0.80117 -2.99723,0.23461 -1.32101,-1.00314 -1.16919,-3.39934 0.25631,-4.04885 0.40246,-0.18337 0.74515,-0.2884 1.06299,-0.31109 z m -7.15512,0.87437 c 1.28689,-0.0156 2.34507,1.04036 2.34507,2.3399 0,1.93598 -2.15577,3.12596 -3.63182,2.00453 -1.76525,-1.34115 -0.88357,-4.31804 1.28675,-4.34443 z" /><path
         style="fill:#000000"
         d="m 35.992471,267.81854 1.82326,-0.91271 c 4.73029,-2.36795 11.63126,-6.96316 13.64687,-9.08717 l 0.81794,-0.86193 -4.23862,-2.96509 c -3.99302,-2.79328 -4.24381,-3.02661 -4.32814,-4.02668 -0.0845,-1.00223 0.0954,-1.23877 3.21794,-4.23091 l 3.30745,-3.16933 -3.44103,-3.87112 c -1.89256,-2.12912 -3.44102,-4.1225 -3.44102,-4.42974 0,-0.90407 0.83524,-1.61347 4.61048,-3.9158 1.96317,-1.19724 3.62182,-2.21473 3.68589,-2.26109 0.0641,-0.0464 -0.70559,-1.88848 -1.71034,-4.0936 -1.00476,-2.20513 -1.82683,-4.27364 -1.82683,-4.5967 0,-1.12153 0.77849,-1.43248 5.26198,-2.10179 2.42284,-0.36168 4.59058,-0.71661 4.8172,-0.78874 0.33558,-0.1068 0.38535,-0.9623 0.26824,-4.6107 -0.16212,-5.05078 -0.0692,-5.32631 1.79493,-5.32094 0.60181,0.002 2.81944,0.26943 4.92808,0.5949 2.10864,0.32546 4.06459,0.59175 4.34657,0.59175 0.38134,0 0.87073,-0.93357 1.91013,-3.64377 1.67423,-4.36551 2.04288,-4.98229 2.97787,-4.98229 0.3908,0 2.74193,0.87004 5.22475,1.93342 2.48281,1.06339 4.60279,1.93107 4.71107,1.92818 0.10827,-0.003 1.59838,-1.67605 3.31136,-3.71813 4.01088,-4.78148 3.71936,-4.75701 8.50546,-0.7142 1.95251,1.64928 3.70919,3.06593 3.903739,3.14812 0.19455,0.0822 2.27315,-0.99952 4.61911,-2.40379 2.34595,-1.40426 4.5531,-2.55321 4.90477,-2.55321 0.87935,0 1.1149,0.28394 3.65639,4.40752 1.22698,1.99079 2.40096,3.62052 2.60883,3.62163 0.20788,0.001 2.54318,-0.46461 5.18955,-1.03492 4.39277,-0.94668 4.87122,-0.99787 5.49669,-0.58805 0.3768,0.24689 0.6851,0.53133 0.6851,0.63208 0,0.25971 1.16755,7.25888 1.33718,8.01608 0.13478,0.60161 0.35299,0.63413 5.19273,0.77385 3.45808,0.0998 5.19575,0.26511 5.50752,0.52386 0.65188,0.54101 0.56584,1.73021 -0.44039,6.08722 -0.48886,2.11674 -0.88883,3.87645 -0.88883,3.91046 0,0.034 1.9074,0.82432 4.23867,1.75623 2.33127,0.93192 4.40598,1.8322 4.61048,2.00061 0.8413,0.69288 0.36253,2.00603 -2.16049,5.92563 l -2.5323,3.93404 0.82184,0.91277 c 0.45201,0.50203 1.77045,1.91667 2.92986,3.14365 2.60759,2.75956 3.20451,3.65636 2.95562,4.44052 -0.10522,0.33154 -1.9766,1.89353 -4.15861,3.47109 l -3.96729,2.8683 1.63429,3.90537 c 2.3673,5.65701 2.306,5.44103 1.77461,6.25202 -0.41299,0.63031 -0.87047,0.75164 -4.56699,1.21123 -2.25941,0.28092 -4.44265,0.61064 -4.85164,0.73271 l -0.74363,0.22196 0.1096,4.51215 c 0.08,3.29344 0.01,4.63228 -0.25951,4.9569 -0.48896,0.58916 -1.71936,0.56215 -6.84017,-0.15015 -2.35224,-0.32719 -4.30836,-0.5949 -4.34693,-0.5949 -0.0386,0 -0.77487,1.82146 -1.63622,4.0477 -1.19578,3.09059 -1.72947,4.12213 -2.25706,4.36252 -0.58372,0.26596 -1.45135,-0.0113 -5.59022,-1.78619 l -4.89927,-2.101 -3.31029,3.53877 c -2.70533,2.89205 -3.46276,3.53877 -4.14455,3.53877 -0.61535,0 -1.833949,-0.80903 -4.644099,-3.08321 l -3.80984,-3.08321 -2.38685,1.49698 c -6.26681,3.93038 -6.66823,4.14701 -7.35658,3.97007 -0.48103,-0.12366 -1.37095,-1.31783 -3.02173,-4.05485 -1.28694,-2.13376 -2.42595,-3.93276 -2.53114,-3.99777 -0.10518,-0.065 -2.33162,0.66947 -4.94764,1.63216 -2.61601,0.96269 -4.96989,1.7538 -5.23083,1.75803 -0.92196,0.0149 -1.45342,-1.10577 -2.37532,-5.00896 -0.78981,-3.34391 -1.00661,-3.91629 -1.42074,-3.75086 -0.26879,0.10737 -2.54007,0.71418 -5.04729,1.34847 -4.97313,1.25811 -11.52922,2.41881 -17.23026,3.05045 -2.00441,0.22208 -3.67729,0.51523 -3.77995,0.53936 -5.47143,1.2861 -7.51096,-3.41224 -0.98141,-7.20403 z m 67.548719,8.20806 c 1.62435,-1.73948 3.24587,-3.20545 3.66074,-3.30958 0.53754,-0.13491 1.94725,0.32547 5.06669,1.65466 2.37706,1.01288 4.36359,1.79946 4.41451,1.74796 0.0509,-0.0515 0.64148,-1.566 1.31236,-3.36557 0.67087,-1.79958 1.50043,-3.5062 1.84348,-3.7925 0.7638,-0.63745 2.14552,-0.65483 5.91191,-0.0744 1.55418,0.23953 3.14716,0.43791 3.53996,0.44084 l 0.71418,0.005 -0.1721,-3.86964 c -0.16769,-3.77048 -0.15384,-3.89133 0.54082,-4.71689 0.66612,-0.79164 0.97715,-0.88168 4.73767,-1.37145 2.21361,-0.2883 4.02474,-0.57615 4.02474,-0.63965 0,-0.0635 -0.66926,-1.70659 -1.48725,-3.65129 -1.46117,-3.47381 -1.66389,-4.27894 -1.30976,-5.20179 0.0976,-0.2544 1.70385,-1.56136 3.56941,-2.90437 1.86555,-1.343 3.39109,-2.5178 3.39009,-2.61066 -9.9e-4,-0.0929 -1.25941,-1.52771 -2.79649,-3.18857 -1.53707,-1.66086 -2.87819,-3.28288 -2.98026,-3.60448 -0.26407,-0.83202 0.10449,-1.63035 2.35058,-5.09157 1.09262,-1.68372 1.90033,-3.14756 1.79491,-3.25298 -0.10542,-0.10541 -1.75514,-0.81511 -3.66606,-1.57711 -2.37833,-0.94838 -3.65792,-1.63127 -4.05617,-2.16468 -0.58161,-0.779 -0.5815,-0.7805 0.3253,-4.79142 l 0.90709,-4.01218 -2.85426,-0.0323 c -4.79883,-0.0543 -6.28313,-0.30317 -6.9029,-1.15752 -0.32369,-0.44619 -0.77762,-2.15711 -1.13489,-4.27758 -0.32749,-1.94367 -0.64671,-3.58523 -0.70939,-3.64791 -0.0627,-0.0627 -2.08546,0.31171 -4.49506,0.83199 -3.22374,0.69607 -4.58669,0.87366 -5.15939,0.67225 -0.54242,-0.19076 -1.43497,-1.31011 -2.94494,-3.69323 -1.19165,-1.88073 -2.31984,-3.38064 -2.50709,-3.33313 -0.18725,0.0475 -2.02092,1.08488 -4.07481,2.30525 -2.05389,1.22037 -4.04146,2.21885 -4.416819,2.21885 -0.42847,0 -2.0262,-1.11878 -4.29293,-3.00605 -2.97135,-2.47392 -3.67525,-2.93464 -3.97641,-2.60269 -0.20127,0.22185 -1.53925,1.77535 -2.97329,3.45222 -3.1926,3.73324 -3.09765,3.71745 -8.49439,1.41289 -2.1071,-0.89978 -3.95254,-1.63597 -4.10097,-1.63597 -0.14844,0 -0.87028,1.56659 -1.6041,3.48131 -0.92935,2.4249 -1.56863,3.65632 -2.10671,4.05805 -0.76552,0.57154 -0.81092,0.57096 -5.03205,-0.0645 -2.34277,-0.3527 -4.35996,-0.63952 -4.48266,-0.63737 -0.1227,0.002 -0.22309,1.78758 -0.22309,3.96763 0,5.09467 0.10814,4.97305 -5.1609,5.80449 -2.10231,0.33174 -3.87816,0.65895 -3.94634,0.72713 -0.0682,0.0682 0.55254,1.64227 1.37939,3.49797 1.57542,3.53572 1.69332,4.52194 0.64655,5.40833 -0.27703,0.23458 -1.87567,1.26442 -3.55255,2.28854 -1.67688,1.02412 -3.04887,1.92669 -3.04887,2.00571 0,0.079 1.33853,1.67644 2.97451,3.54981 3.96799,4.5438 3.96816,4.44208 -0.0139,8.34706 l -2.98844,2.93057 3.79934,2.67548 c 5.33584,3.75749 5.4487,4.39053 1.48791,8.34576 -2.9348,2.93066 -7.16781,5.76753 -12.89573,8.64241 -4.85298,2.43573 -4.87704,2.42699 3.02588,1.09991 7.55006,-1.26783 15.15704,-3.14796 18.4532,-4.56086 1.76315,-0.75577 2.30725,-0.74255 3.25915,0.0792 0.61351,0.52963 0.96311,1.41363 1.6756,4.23692 0.49519,1.96221 0.94077,3.60809 0.99018,3.6575 0.0494,0.0494 1.92542,-0.5856 4.1689,-1.41114 4.14958,-1.52693 5.13407,-1.72367 6.08328,-1.21567 0.29321,0.15693 1.45234,1.83009 2.57583,3.71813 1.1235,1.88805 2.14519,3.43282 2.27042,3.43282 0.12524,0 1.94588,-1.07082 4.04588,-2.37961 2.16644,-1.35018 4.1455,-2.3796 4.57482,-2.3796 0.5094,0 1.91119,0.92305 4.29003,2.8249 1.94337,1.55369 3.602319,2.82529 3.686559,2.82577 0.0842,4.9e-4 1.46535,-1.4043 3.06915,-3.12176 z"
         id="path18"
         sodipodi:nodetypes="csscssscsssssssssssssssssssssssssssssssssscsssscsssscscssssscssscssssscsssssccssssssccssssssssssssssscsssssssssssssssssscssssssssscsssssssssssssssscc" /></g></g></svg>
