<?xml version="1.0" encoding="UTF-8" standalone="no"?>
<!-- Created with Inkscape (http://www.inkscape.org/) -->

<svg
   width="210mm"
   height="175.198mm"
   viewBox="0 0 210 175.198"
   version="1.1"
   id="svg1"
   xml:space="preserve"
   inkscape:export-filename="heute-karte.svg"
   inkscape:export-xdpi="120.95238"
   inkscape:export-ydpi="120.95238"
   sodipodi:docname="neu-megafon2.svg"
   inkscape:version="1.3.2 (091e20e, 2023-11-25, custom)"
   xmlns:inkscape="http://www.inkscape.org/namespaces/inkscape"
   xmlns:sodipodi="http://sodipodi.sourceforge.net/DTD/sodipodi-0.dtd"
   xmlns="http://www.w3.org/2000/svg"
   xmlns:svg="http://www.w3.org/2000/svg"><sodipodi:namedview
     id="namedview1"
     pagecolor="#ffffff"
     bordercolor="#000000"
     borderopacity="0.25"
     inkscape:showpageshadow="2"
     inkscape:pageopacity="0.0"
     inkscape:pagecheckerboard="0"
     inkscape:deskcolor="#d1d1d1"
     inkscape:document-units="mm"
     inkscape:zoom="0.53798611"
     inkscape:cx="459.11966"
     inkscape:cy="302.05241"
     inkscape:window-width="1920"
     inkscape:window-height="1017"
     inkscape:window-x="-8"
     inkscape:window-y="-8"
     inkscape:window-maximized="1"
     inkscape:current-layer="layer1" /><defs
     id="defs1" /><g
     inkscape:label="Ebene 1"
     inkscape:groupmode="layer"
     id="layer1"><g
       id="g14"
       transform="translate(0,-25.929177)"><path
         style="fill:#ffffff;fill-opacity:1;stroke:none;stroke-width:2.77299;stroke-linecap:round;stroke-linejoin:miter;stroke-dasharray:none;stroke-opacity:1;paint-order:stroke fill markers"
         d="m 98.124411,139.14279 -10.98828,-81.982496 -14.1084,15.871954 -20.4391,13.113581 -18.49467,4.928899 3.25578,26.498472 18.63033,-0.40697 18.58511,6.55679 15.14845,8.90819 z"
         id="path17" /><path
         style="fill:#ff0000;fill-opacity:1;stroke:none;stroke-width:2.77299;stroke-linecap:round;stroke-linejoin:miter;stroke-dasharray:none;stroke-opacity:1;paint-order:stroke fill markers"
         d="m 32.805261,90.643999 3.38933,29.416851 9.5285,24.74852 1.98244,8.69715 -6.13917,3.90093 -5.75547,-3.26143 -13.36548,-33.70148 -9.59244,-0.89529 -8.6971809,-6.39497 -0.57554,-11.12724 5.43573,-6.778661 z"
         id="path16" /><path
         style="fill:#000000"
         d="m 38.449191,158.58977 c -0.80685,-0.28477 -1.9194,-1.0657 -2.82696,-1.98431 -1.46484,-1.48268 -1.63713,-1.86402 -8.14309,-18.02323 -3.65563,-9.07967 -6.73371,-16.5989 -6.84019,-16.70938 -0.10648,-0.11049 -1.38415,-0.0604 -2.83928,0.11121 -4.89655,0.57761 -8.9126009,-0.71858 -12.0990209,-3.905 -2.27185,-2.27185 -3.43062,-4.73824 -3.9926901,-8.49825 -0.53182,-3.55759 -0.55571,-4.95622 -0.12046,-7.0498 1.0753601,-5.172471 5.3953401,-9.595521 10.380511,-10.628196 0.89979,-0.186391 7.5255,-1.062736 14.7238,-1.947434 16.8642,-2.072672 20.5671,-2.996223 28.70706,-7.159917 10.80442,-5.526596 22.25551,-16.317729 29.26264,-27.576163 1.48945,-2.393111 2.14285,-2.844462 3.59146,-2.480883 0.52949,0.132894 0.81757,0.492256 1.03924,1.296411 0.16867,0.611903 1.4522,10.549166 2.85229,22.082807 l 5.79964,47.400025 c 1.51224,12.33665 1.98791,17.04027 1.76534,17.45616 -0.34197,0.63896 -1.21046,1.17782 -1.89833,1.17782 -0.25113,0 -1.8327,-1.23944 -3.5146,-2.75431 -11.44942,-10.31238 -23.35907,-16.68843 -36.28883,-19.4279 -2.95639,-0.62638 -4.75913,-0.80326 -9.4533,-0.92755 -4.98074,-0.13188 -9.85258,0.14363 -10.29092,0.58197 -0.0655,0.0655 2.48448,6.55313 5.66662,14.41694 3.36688,8.32033 5.8676,14.91505 5.98156,15.77417 0.62933,4.74407 -3.48756,9.33045 -8.31914,9.26787 -0.9971,-0.0129 -2.41161,-0.23479 -3.14335,-0.49306 z m 4.55147,-4.0535 c 0.53408,-0.22315 1.3329,-0.83575 1.77515,-1.36135 1.49192,-1.77304 1.38554,-2.1575 -4.88261,-17.64511 -3.1277,-7.72804 -5.79277,-14.32934 -5.92238,-14.66956 l -0.23566,-0.61857 -4.06106,0.51348 c -2.23358,0.28242 -4.13813,0.59056 -4.23233,0.68476 -0.16667,0.16667 11.32908,28.97637 12.44611,31.19142 0.5877,1.16539 2.25895,2.2742 3.46292,2.29752 0.37335,0.007 1.11579,-0.16943 1.64986,-0.39259 z m 52.16323,-20.78761 c -0.0851,-0.36809 -2.12993,-16.86544 -4.54408,-36.660771 -2.41414,-19.795325 -4.44931,-36.058427 -4.5226,-36.140226 -0.0733,-0.0818 -0.41886,0.243474 -0.76791,0.722828 -4.1458,5.693338 -11.44896,13.416194 -16.19471,17.125376 -6.34689,4.960614 -14.21718,9.306561 -20.7289,11.446435 -2.79667,0.91904 -8.07579,2.091257 -12.1211,2.691467 -0.78985,0.11719 -1.11454,0.3135 -1.11234,0.67256 0.007,1.06161 2.60304,21.505561 2.75006,21.652581 0.085,0.085 1.60844,-0.004 3.3855,-0.19788 8.71729,-0.95066 19.55905,0.6493 28.96049,4.2738 7.6677,2.9561 17.66985,8.95359 23.34986,14.00103 1.39121,1.23628 1.75882,1.33445 1.54573,0.4128 z m -70.44499,-16.91907 c 5.88547,-0.68824 8.48258,-1.10327 8.58572,-1.37206 0.12839,-0.33457 -2.17412,-20.518721 -2.43685,-21.361821 -0.15528,-0.49829 -17.94986,1.76624 -19.59402,2.49352 -2.8044809,1.24056 -4.9518109,4.025491 -5.5545809,7.203891 -0.3194,1.68418 0.0715,5.53355 0.79187,7.79892 0.56362,1.77232 2.91915,4.40775 4.7178809,5.2785 1.3209,0.63944 3.76197,1.18441 4.60595,1.02829 0.2454,-0.0454 4.24321,-0.52655 8.88403,-1.06924 z"
         id="path15"
         sodipodi:nodetypes="sssscsssssssssccsssssssssssssscssscsssscssscscssssssssssss" /></g><g
       id="g13"
       transform="matrix(0.43106399,0,0,0.43106399,193.36955,242.55955)"><path
         style="fill:#ffffff;fill-opacity:1"
         d="m -212.93353,-167.41741 c -8.46613,-1.31595 -15.38178,-6.659 -17.78102,-13.73765 l -0.72913,-2.1512 v -36.77708 c 0,-40.57344 -0.10772,-37.97683 1.73434,-41.80417 2.29838,-4.77543 6.71373,-8.43946 12.62483,-10.47657 3.92063,-1.35115 0.79699,-1.29739 75.3839,-1.29739 h 69.43313 l 0.56424,-1.38906 c 2.11833,-5.21492 4.87471,-9.36466 8.93143,-13.44629 9.13504,-9.19113 21.71285,-13.18892 34.48657,-10.96138 8.246188,1.43802 15.599948,5.39883 21.513738,11.58755 3.53734,3.70178 6.18652,7.89931 8.50861,13.48158 l 0.30266,0.7276 h 3.01373 c 1.65755,0 4.03259,0.17768 5.27787,0.39483 9.34944,1.63041 16.6178,8.13281 17.89518,16.00934 0.18574,1.14531 0.27649,13.47452 0.27167,36.90937 -0.008,38.78351 0.0355,37.69604 -1.64859,41.23316 -2.92028,6.13345 -9.3188,10.5025 -17.12559,11.69373 -2.16671,0.33061 -17.55533,0.38014 -111.521878,0.35892 -85.78559,-0.0194 -109.46154,-0.0951 -111.13569,-0.35529 z"
         id="path13"
         sodipodi:nodetypes="cscsssscssssscscsssssc" /><path
         style="fill:#0f70b7;fill-opacity:1"
         d="m -212.93353,-167.41741 c -8.46613,-1.31595 -15.38178,-6.659 -17.78102,-13.73765 l -0.72913,-2.1512 v -36.77708 c 0,-40.57344 -0.10772,-37.97683 1.73434,-41.80417 2.29838,-4.77543 6.71373,-8.43946 12.62483,-10.47657 3.92063,-1.35115 0.79699,-1.29739 75.3839,-1.29739 h 69.433132 l 0.56424,-1.38906 c 2.11833,-5.21492 4.87471,-9.36466 8.93143,-13.44629 9.13504,-9.19113 21.71285,-13.18892 34.486565,-10.96138 8.24619,1.43802 15.59995,5.39883 21.51374,11.58755 3.53734,3.70178 6.18652,7.89931 8.50861,13.48158 l 0.30266,0.7276 h 3.01373 c 1.65755,0 4.03259,0.17768 5.27787,0.39483 9.34944,1.63041 16.6178,8.13281 17.89518,16.00934 0.18574,1.14531 0.27649,13.47452 0.27167,36.90937 -0.008,38.78351 0.0355,37.69604 -1.64859,41.23316 -2.92028,6.13345 -9.3188,10.5025 -17.12559,11.69373 -2.16671,0.33061 -17.55533,0.38014 -111.521877,0.35892 -85.78559,-0.0194 -109.46154,-0.0951 -111.13569,-0.35529 z m 223.029037,-8.87089 c 2.83082,-0.72401 5.03181,-1.95214 6.94134,-3.87323 1.16367,-1.17071 1.7837,-2.06023 2.18651,-3.13683 l 0.56224,-1.50273 -0.0698,-36.02967 -0.0699,-36.02967 -0.77121,-1.39192 c -1.04742,-1.89044 -3.12661,-3.7898 -5.40415,-4.93675 -3.09255,-1.55739 -4.44112,-1.78233 -11.5783,-1.93131 l -6.37658,-0.1331 -0.42556,-2.59252 c -1.88973,-11.51228 -10.3465,-20.50214 -22.32996,-23.73757 -2.3948,-0.64657 -2.99263,-0.69969 -7.88299,-0.70041 -4.922705,-7.3e-4 -5.470445,0.0486 -7.855625,0.70697 -5.32914,1.47106 -10.07822,4.07718 -13.76151,7.5518 -2.38688,2.25167 -4.15572,4.63174 -5.73589,7.71794 -1.78589,3.48799 -2.31348,5.22369 -3.07508,10.1166 l -0.15386,0.98847 -72.815262,0.081 c -59.03726,0.0657 -73.06559,0.1467 -74.13819,0.42815 -4.09448,1.07442 -7.9428,3.79771 -9.31486,6.59172 l -0.73931,1.5055 v 36.24792 36.24792 l 0.90847,1.67562 c 1.1157,2.05783 2.97678,3.74487 5.45912,4.94859 3.72978,1.80862 -6.1073,1.66385 114.70311,1.68812 108.410217,0.0218 109.717527,0.0159 111.737237,-0.50062 z m -122.741267,-16.00502 c -2.77192,-0.43968 -4.13728,-0.82677 -6.17705,-1.75123 -4.03041,-1.82665 -7.33061,-5.01002 -9.16532,-8.84088 -1.70445,-3.55884 -2.12079,-5.59328 -2.11172,-10.31875 0.009,-4.6466 0.38909,-6.48489 2.05193,-9.92187 0.90361,-1.86771 1.51642,-2.67616 3.6149,-4.76896 3.82075,-3.8104 6.94016,-5.19586 12.32161,-5.47253 6.77402,-0.34826 12.27152,2.14241 15.875016,7.19225 2.50865,3.51556 3.52408,7.02935 3.74845,12.97111 0.14055,3.72209 0.11636,4.00986 -0.38924,4.63021 l -0.53911,0.66146 -10.342336,0.075 c -5.68829,0.0413 -10.34234,0.1491 -10.34234,0.23961 0,0.52841 1.54453,2.0377 2.66774,2.60687 2.89734,1.46819 7.44315,1.46629 12.086462,-0.005 3.150324,-0.99826 3.26002,-0.92201 5.064314,3.52035 l 1.42998,3.52074 -0.38409,1.23678 c -0.48474,1.56093 -1.36573,2.17839 -4.574688,3.20631 -4.629038,1.48281 -10.255028,1.94495 -14.834508,1.21855 z m 5.02401,-25.60721 c -0.6359,-3.08207 -2.35406,-4.78639 -4.20834,-4.17442 -0.48619,0.16045 -1.07242,0.49996 -1.30274,0.75446 -0.47483,0.52469 -1.34933,2.46291 -1.60272,3.55225 l -0.16925,0.72761 h 3.73023 3.73023 z m 41.674942,25.84479 c -3.90758,-0.67757 -5.76946,-1.44818 -8.81347,-3.64781 -1.13663,-0.82133 -2.153366,-1.49333 -2.259426,-1.49333 -0.10605,0 -0.64222,0.83202 -1.19148,1.84894 -0.54926,1.01692 -1.25565,2.02895 -1.56976,2.24896 -0.4451,0.31176 -1.40717,0.40001 -4.36071,0.40001 -3.67077,0 -3.80999,-0.0204 -4.43905,-0.64943 l -0.64943,-0.64943 v -25.89508 -25.89507 l 0.61236,-0.57529 c 0.59636,-0.56024 0.79247,-0.57528 7.49962,-0.57528 6.663676,0 6.903616,0.0181 7.391276,0.55645 0.46441,0.51271 0.51021,1.10735 0.58264,7.56415 0.0599,5.33737 0.15447,6.97427 0.39688,6.86744 5.62243,-2.47773 9.57453,-3.07367 14.15389,-2.13428 3.27923,0.67268 5.15026,1.71383 7.75892,4.3175 1.92171,1.91805 2.47007,2.67056 3.48989,4.78915 1.41206,2.93348 1.9084,4.71919 2.31909,8.34358 0.69009,6.09018 -0.6255,12.83754 -3.28398,16.8427 -3.31219,4.99002 -7.97562,7.56203 -14.06538,7.75743 -1.60073,0.0514 -3.20808,0.0418 -3.57188,-0.0213 z m 1.14321,-11.51023 c 1.45085,-0.40288 2.89789,-1.83764 3.7802,-3.74811 0.73017,-1.58106 0.76477,-1.82603 0.75727,-5.36093 -0.009,-4.16476 -0.41289,-5.69422 -2.01854,-7.6409 -1.97486,-2.39432 -5.65954,-2.98725 -8.99885,-1.44806 l -1.80704,0.83292 v 7.21206 7.21205 l 1.29135,0.92774 c 1.74157,1.2512 2.77184,1.76059 4.08668,2.02057 1.55897,0.30826 1.77436,0.30772 2.90893,-0.007 z m 52.038045,11.37228 c -4.6855,-0.60311 -9.10199,-1.83156 -9.54225,-2.65417 -0.15977,-0.29855 -0.52562,-2.69777 -0.813,-5.33159 -0.51418,-4.71257 -0.51447,-4.79957 -0.018,-5.46717 0.27747,-0.37311 0.7558,-0.71583 1.06296,-0.76159 0.30716,-0.0458 2.27536,0.57775 4.37378,1.38558 2.09842,0.80783 4.61139,1.6534 5.58438,1.87905 1.86254,0.43195 5.702,0.59792 6.6699,0.28832 1.32637,-0.42426 0.82425,-1.71445 -0.96775,-2.48659 -0.50932,-0.21946 -2.4905,-0.96227 -4.40263,-1.65069 -1.95339,-0.70328 -4.57504,-1.89815 -5.98372,-2.7272 -4.35452,-2.56277 -5.94446,-4.99144 -6.21581,-9.49474 -0.24276,-4.02866 0.63104,-6.94599 2.7693,-9.24581 4.75131,-5.11034 13.60529,-6.39601 23.16528,-3.36379 1.67841,0.53236 2.72273,1.01594 2.97656,1.37834 0.31205,0.44551 0.39102,1.58537 0.39102,5.64376 0,4.95528 -0.0151,5.09605 -0.58804,5.49738 -0.32342,0.22654 -0.80203,0.41188 -1.06358,0.41188 -0.26155,0 -2.05076,-0.77136 -3.97602,-1.71412 -4.16409,-2.03909 -6.54811,-2.59132 -8.20256,-1.90005 -0.74974,0.31326 -0.98646,0.5643 -0.98646,1.04612 0,1.10313 1.47693,1.98092 6.78454,4.03226 1.69342,0.65449 3.78476,1.56618 4.64742,2.02598 2.19236,1.16851 5.05691,3.89093 5.87567,5.58414 1.74779,3.61444 1.34908,8.95066 -0.9146,12.24081 -1.83227,2.66311 -5.17232,4.53406 -9.41517,5.27395 -2.46119,0.42919 -8.28711,0.48633 -11.2112,0.10994 z m -196.237387,-0.77171 c -0.31791,-0.12809 -0.70487,-0.4699 -0.8599,-0.75958 -0.19389,-0.36229 -0.28188,-8.53233 -0.28188,-26.173 0,-25.54503 0.002,-25.64905 0.54837,-26.34343 l 0.54837,-0.69714 h 8.94732 c 8.13616,0 8.99698,0.042 9.49517,0.46302 0.30132,0.25466 4.61431,7.07099 9.58442,15.14739 4.97011,8.07641 9.06538,14.71683 9.10061,14.75649 0.0352,0.0397 4.0287,-6.44925 8.87438,-14.41979 4.84567,-7.97055 9.11182,-14.81933 9.48034,-15.21951 l 0.67002,-0.7276 h 9.03251 9.0325 l 0.57529,0.61236 0.57529,0.61237 v 25.85799 25.858 l -0.64944,0.64943 -0.64943,0.64943 h -7.69697 -7.69697 l -0.64943,-0.64943 -0.64943,-0.64943 v -13.82706 c 0,-11.62838 -0.0568,-13.76545 -0.35749,-13.43963 -0.19662,0.21308 -3.59988,6.45961 -7.56281,13.88118 -3.96292,7.42156 -7.49963,13.76164 -7.85935,14.08906 -0.61466,0.55947 -0.88321,0.59531 -4.46098,0.59531 -3.57254,0 -3.84831,-0.0366 -4.47864,-0.59531 -0.36943,-0.32742 -3.95379,-6.72692 -7.96524,-14.22112 -4.01146,-7.49419 -7.40678,-13.73902 -7.54515,-13.8774 -0.15907,-0.15906 -0.25159,4.83208 -0.25159,13.57169 v 13.82328 l -0.64944,0.64943 -0.64943,0.64943 -7.4865,-0.0168 c -4.11758,-0.009 -7.74662,-0.12157 -8.06452,-0.24966 z m 168.191552,-0.26273 c -0.51955,-0.51955 -0.52917,-0.88195 -0.52917,-19.93504 0,-18.46407 0.0235,-19.42712 0.48386,-19.84375 0.41868,-0.3789 1.25087,-0.43788 6.178585,-0.43788 5.49678,0 5.72597,0.0211 6.59375,0.60582 l 0.89902,0.60583 0.0679,19.15286 0.0679,19.15286 -0.57704,0.61423 c -0.57099,0.60779 -0.64035,0.61423 -6.61634,0.61423 -5.686525,0 -6.070205,-0.0309 -6.568465,-0.52916 z"
         id="path1"
         sodipodi:nodetypes="cscsssscssssscscssssscssscccssscssscssscssscccsssssssscssssssccsssscsssssssscccsssssssscccsssscsssssssscscsscccssccsssssssssssssssssssssssssssssssccsssssscccccccccccccsssssssssccccssssssccccsss" /><path
         style="fill:#ee751a;fill-opacity:1"
         d="m -40.133298,-242.43783 c -12.61223,-3.39814 -18.82133,-17.34765 -12.83487,-28.83515 2.48854,-4.77529 6.43717,-8.12249 11.7599,-9.96873 1.92778,-0.66867 2.45903,-0.73508 5.953135,-0.74416 3.2998,-0.009 4.11404,0.0767 5.82083,0.60964 5.14048,1.60511 9.28844,4.91761 11.97972,9.56684 0.37907,0.65485 1.07615,2.32172 1.54907,3.70417 0.79585,2.32646 0.86012,2.76955 0.86338,5.95313 0.004,3.77617 -0.35083,5.55081 -1.70755,8.54299 -2.45362,5.41134 -7.59406,9.69735 -13.41657,11.18649 -2.68289,0.68617 -7.390495,0.67898 -9.967045,-0.0152 z"
         id="path12"
         sodipodi:nodetypes="ssscssscssss" /></g></g></svg>
